solid OpenSCAD_Model
  facet normal -0 0 1
    outer loop
      vertex -4.645 5.355 10
      vertex 4.645 4.645 10
      vertex 4.645 5.355 10
    endloop
  endfacet
  facet normal 0 0 1
    outer loop
      vertex 4.645 4.645 10
      vertex -4.645 5.355 10
      vertex -4.645 4.645 10
    endloop
  endfacet
  facet normal -0 0 1
    outer loop
      vertex 5.355 5.355 10
      vertex 14.645 4.645 10
      vertex 14.645 5.355 10
    endloop
  endfacet
  facet normal 0 0 1
    outer loop
      vertex 14.645 4.645 10
      vertex 5.355 5.355 10
      vertex 5.355 4.645 10
    endloop
  endfacet
  facet normal 0 0 1
    outer loop
      vertex 14.645 5.355 10
      vertex 15 15 10
      vertex 14.645 14.645 10
    endloop
  endfacet
  facet normal 0 0 1
    outer loop
      vertex 15 15 10
      vertex 5.355 14.645 10
      vertex 14.645 14.645 10
    endloop
  endfacet
  facet normal 0 0 1
    outer loop
      vertex 4.645 5.355 10
      vertex 5.355 5.355 10
      vertex 5.355 14.645 10
    endloop
  endfacet
  facet normal 0 0 1
    outer loop
      vertex 5.355 5.355 10
      vertex 4.645 5.355 10
      vertex 5.355 4.645 10
    endloop
  endfacet
  facet normal 0 0 1
    outer loop
      vertex 4.645 5.355 10
      vertex 5.355 14.645 10
      vertex 4.645 14.645 10
    endloop
  endfacet
  facet normal 0 0 1
    outer loop
      vertex 15 15 10
      vertex 4.645 14.645 10
      vertex 5.355 14.645 10
    endloop
  endfacet
  facet normal -0 0 1
    outer loop
      vertex -5 15 10
      vertex 4.645 14.645 10
      vertex 15 15 10
    endloop
  endfacet
  facet normal 0 0 1
    outer loop
      vertex -5 15 10
      vertex -4.645 5.355 10
      vertex -4.645 14.645 10
    endloop
  endfacet
  facet normal 0 0 1
    outer loop
      vertex -4.645 5.355 10
      vertex -5 15 10
      vertex -4.645 4.645 10
    endloop
  endfacet
  facet normal 0 0 1
    outer loop
      vertex -5 -5 10
      vertex -4.645 4.645 10
      vertex -5 15 10
    endloop
  endfacet
  facet normal 0 0 1
    outer loop
      vertex 4.645 14.645 10
      vertex -5 15 10
      vertex -4.645 14.645 10
    endloop
  endfacet
  facet normal 0 0 1
    outer loop
      vertex 15 15 10
      vertex 14.645 5.355 10
      vertex 15 -5 10
    endloop
  endfacet
  facet normal -0 0 1
    outer loop
      vertex 14.645 4.645 10
      vertex 15 -5 10
      vertex 14.645 5.355 10
    endloop
  endfacet
  facet normal -0 0 1
    outer loop
      vertex 14.645 -4.645 10
      vertex 15 -5 10
      vertex 14.645 4.645 10
    endloop
  endfacet
  facet normal -0 0 1
    outer loop
      vertex 5.355 -4.645 10
      vertex 15 -5 10
      vertex 14.645 -4.645 10
    endloop
  endfacet
  facet normal 0 0 1
    outer loop
      vertex 4.645 4.645 10
      vertex 5.355 4.645 10
      vertex 4.645 5.355 10
    endloop
  endfacet
  facet normal 0 0 1
    outer loop
      vertex 5.355 4.645 10
      vertex 4.645 4.645 10
      vertex 5.355 -4.645 10
    endloop
  endfacet
  facet normal 0 0 1
    outer loop
      vertex 4.645 -4.645 10
      vertex 5.355 -4.645 10
      vertex 4.645 4.645 10
    endloop
  endfacet
  facet normal -0 0 1
    outer loop
      vertex 4.645 -4.645 10
      vertex 15 -5 10
      vertex 5.355 -4.645 10
    endloop
  endfacet
  facet normal 0 0 1
    outer loop
      vertex -5 -5 10
      vertex 4.645 -4.645 10
      vertex -4.645 -4.645 10
    endloop
  endfacet
  facet normal 0 0 1
    outer loop
      vertex 4.645 -4.645 10
      vertex -5 -5 10
      vertex 15 -5 10
    endloop
  endfacet
  facet normal 0 0 1
    outer loop
      vertex -4.645 4.645 10
      vertex -5 -5 10
      vertex -4.645 -4.645 10
    endloop
  endfacet
  facet normal 0 0 -1
    outer loop
      vertex -5 -5 0
      vertex -4 -4 0
      vertex -4 -5 0
    endloop
  endfacet
  facet normal -0 0 -1
    outer loop
      vertex -4 -4 0
      vertex -5 -5 0
      vertex -5 -4 0
    endloop
  endfacet
  facet normal 0 0 -1
    outer loop
      vertex 14 -5 0
      vertex 15 -4 0
      vertex 15 -5 0
    endloop
  endfacet
  facet normal -0 0 -1
    outer loop
      vertex 15 -4 0
      vertex 14 -5 0
      vertex 14 -4 0
    endloop
  endfacet
  facet normal 0 0 -1
    outer loop
      vertex -5 14 0
      vertex -4 15 0
      vertex -4 14 0
    endloop
  endfacet
  facet normal -0 0 -1
    outer loop
      vertex -4 15 0
      vertex -5 14 0
      vertex -5 15 0
    endloop
  endfacet
  facet normal 0 0 -1
    outer loop
      vertex 14 14 0
      vertex 15 15 0
      vertex 15 14 0
    endloop
  endfacet
  facet normal -0 0 -1
    outer loop
      vertex 15 15 0
      vertex 14 14 0
      vertex 14 15 0
    endloop
  endfacet
  facet normal 0 0 -1
    outer loop
      vertex -5 4 0
      vertex -4 6 0
      vertex -4 4 0
    endloop
  endfacet
  facet normal -0 0 -1
    outer loop
      vertex -4 6 0
      vertex -5 4 0
      vertex -5 6 0
    endloop
  endfacet
  facet normal 0 0 -1
    outer loop
      vertex 4 -5 0
      vertex 6 -4 0
      vertex 6 -5 0
    endloop
  endfacet
  facet normal -0 0 -1
    outer loop
      vertex 6 -4 0
      vertex 4 -5 0
      vertex 4 -4 0
    endloop
  endfacet
  facet normal 0 0 -1
    outer loop
      vertex 4 14 0
      vertex 6 15 0
      vertex 6 14 0
    endloop
  endfacet
  facet normal -0 0 -1
    outer loop
      vertex 6 15 0
      vertex 4 14 0
      vertex 4 15 0
    endloop
  endfacet
  facet normal 0 0 -1
    outer loop
      vertex 14 4 0
      vertex 15 6 0
      vertex 15 4 0
    endloop
  endfacet
  facet normal -0 0 -1
    outer loop
      vertex 15 6 0
      vertex 14 4 0
      vertex 14 6 0
    endloop
  endfacet
  facet normal 0 0 -1
    outer loop
      vertex -3.75 -3.75 0
      vertex 3.75 3.75 0
      vertex 3.75 -3.75 0
    endloop
  endfacet
  facet normal -0 0 -1
    outer loop
      vertex 3.75 3.75 0
      vertex -3.75 -3.75 0
      vertex -3.75 3.75 0
    endloop
  endfacet
  facet normal 0 0 -1
    outer loop
      vertex -3.75 6.25 0
      vertex 3.75 13.75 0
      vertex 3.75 6.25 0
    endloop
  endfacet
  facet normal -0 0 -1
    outer loop
      vertex 3.75 13.75 0
      vertex -3.75 6.25 0
      vertex -3.75 13.75 0
    endloop
  endfacet
  facet normal 0 0 -1
    outer loop
      vertex 4 4 0
      vertex 6 6 0
      vertex 6 4 0
    endloop
  endfacet
  facet normal -0 0 -1
    outer loop
      vertex 6 6 0
      vertex 4 4 0
      vertex 4 6 0
    endloop
  endfacet
  facet normal 0 0 -1
    outer loop
      vertex 6.25 -3.75 0
      vertex 13.75 3.75 0
      vertex 13.75 -3.75 0
    endloop
  endfacet
  facet normal -0 0 -1
    outer loop
      vertex 13.75 3.75 0
      vertex 6.25 -3.75 0
      vertex 6.25 3.75 0
    endloop
  endfacet
  facet normal 0 0 -1
    outer loop
      vertex 6.25 6.25 0
      vertex 13.75 13.75 0
      vertex 13.75 6.25 0
    endloop
  endfacet
  facet normal -0 0 -1
    outer loop
      vertex 13.75 13.75 0
      vertex 6.25 6.25 0
      vertex 6.25 13.75 0
    endloop
  endfacet
  facet normal -1 0 0
    outer loop
      vertex -5 -4 0
      vertex -5 -5 0
      vertex -5 -4 1.55
    endloop
  endfacet
  facet normal -1 0 0
    outer loop
      vertex -5 6 0
      vertex -5 4 0
      vertex -5 6 1.55
    endloop
  endfacet
  facet normal -1 0 0
    outer loop
      vertex -5 14 1.55
      vertex -5 15 0
      vertex -5 14 0
    endloop
  endfacet
  facet normal -1 0 0
    outer loop
      vertex -5 15 0
      vertex -5 14 1.55
      vertex -5 15 10
    endloop
  endfacet
  facet normal -1 0 0
    outer loop
      vertex -5 6 1.55
      vertex -5 15 10
      vertex -5 14 1.55
    endloop
  endfacet
  facet normal -1 0 0
    outer loop
      vertex -5 4 1.55
      vertex -5 6 1.55
      vertex -5 4 0
    endloop
  endfacet
  facet normal -1 0 0
    outer loop
      vertex -5 6 1.55
      vertex -5 4 1.55
      vertex -5 15 10
    endloop
  endfacet
  facet normal -1 0 0
    outer loop
      vertex -5 -5 10
      vertex -5 4 1.55
      vertex -5 -4 1.55
    endloop
  endfacet
  facet normal -1 0 0
    outer loop
      vertex -5 4 1.55
      vertex -5 -5 10
      vertex -5 15 10
    endloop
  endfacet
  facet normal -1 0 0
    outer loop
      vertex -5 -5 10
      vertex -5 -4 1.55
      vertex -5 -5 0
    endloop
  endfacet
  facet normal 0 -1 0
    outer loop
      vertex 4 -5 0
      vertex 6 -5 1.55
      vertex 4 -5 1.55
    endloop
  endfacet
  facet normal 0 -1 -0
    outer loop
      vertex 6 -5 1.55
      vertex 4 -5 0
      vertex 6 -5 0
    endloop
  endfacet
  facet normal 0 -1 0
    outer loop
      vertex 4 -5 1.55
      vertex -5 -5 10
      vertex -4 -5 1.55
    endloop
  endfacet
  facet normal 0 -1 0
    outer loop
      vertex -5 -5 0
      vertex -4 -5 1.55
      vertex -5 -5 10
    endloop
  endfacet
  facet normal 0 -1 -0
    outer loop
      vertex -4 -5 1.55
      vertex -5 -5 0
      vertex -4 -5 0
    endloop
  endfacet
  facet normal 0 -1 0
    outer loop
      vertex -5 -5 10
      vertex 4 -5 1.55
      vertex 15 -5 10
    endloop
  endfacet
  facet normal 0 -1 0
    outer loop
      vertex 6 -5 1.55
      vertex 15 -5 10
      vertex 4 -5 1.55
    endloop
  endfacet
  facet normal 0 -1 0
    outer loop
      vertex 14 -5 1.55
      vertex 15 -5 10
      vertex 6 -5 1.55
    endloop
  endfacet
  facet normal 0 -1 0
    outer loop
      vertex 15 -5 0
      vertex 14 -5 1.55
      vertex 14 -5 0
    endloop
  endfacet
  facet normal 0 -1 0
    outer loop
      vertex 14 -5 1.55
      vertex 15 -5 0
      vertex 15 -5 10
    endloop
  endfacet
  facet normal 1 0 0
    outer loop
      vertex -4.645 4.645 10
      vertex -4.645 4 1.55
      vertex -4.645 4.645 0.395
    endloop
  endfacet
  facet normal 1 0 0
    outer loop
      vertex -4.645 4.645 10
      vertex -4.645 -4 1.55
      vertex -4.645 4 1.55
    endloop
  endfacet
  facet normal 1 -0 0
    outer loop
      vertex -4.645 -4.645 10
      vertex -4.645 -4 1.55
      vertex -4.645 4.645 10
    endloop
  endfacet
  facet normal 1 0 0
    outer loop
      vertex -4.645 -4.645 0.395
      vertex -4.645 -4 1.55
      vertex -4.645 -4.645 10
    endloop
  endfacet
  facet normal 1 0 0
    outer loop
      vertex -4.645 -4 1.55
      vertex -4.645 -4.645 0.395
      vertex -4.645 -4 0.395
    endloop
  endfacet
  facet normal 1 0 0
    outer loop
      vertex -4.645 4.645 0.395
      vertex -4.645 4 1.55
      vertex -4.645 4 0.395
    endloop
  endfacet
  facet normal 0 -1 0
    outer loop
      vertex -4.645 4.645 10
      vertex -4 4.645 1.55
      vertex 4.645 4.645 10
    endloop
  endfacet
  facet normal 0 -1 0
    outer loop
      vertex -4.645 4.645 0.395
      vertex -4 4.645 1.55
      vertex -4.645 4.645 10
    endloop
  endfacet
  facet normal 0 -1 -0
    outer loop
      vertex -4 4.645 1.55
      vertex -4.645 4.645 0.395
      vertex -4 4.645 0.395
    endloop
  endfacet
  facet normal 0 -1 0
    outer loop
      vertex 4 4.645 1.55
      vertex 4.645 4.645 10
      vertex -4 4.645 1.55
    endloop
  endfacet
  facet normal 0 -1 0
    outer loop
      vertex 4.645 4.645 0.395
      vertex 4 4.645 1.55
      vertex 4 4.645 0.395
    endloop
  endfacet
  facet normal 0 -1 0
    outer loop
      vertex 4 4.645 1.55
      vertex 4.645 4.645 0.395
      vertex 4.645 4.645 10
    endloop
  endfacet
  facet normal -1 0 0
    outer loop
      vertex 4.645 -4 0.395
      vertex 4.645 -4.645 0.395
      vertex 4.645 -4 1.55
    endloop
  endfacet
  facet normal -1 0 0
    outer loop
      vertex 4.645 4 1.55
      vertex 4.645 4.645 0.395
      vertex 4.645 4 0.395
    endloop
  endfacet
  facet normal -1 0 0
    outer loop
      vertex 4.645 4.645 0.395
      vertex 4.645 4 1.55
      vertex 4.645 4.645 10
    endloop
  endfacet
  facet normal -1 0 0
    outer loop
      vertex 4.645 -4 1.55
      vertex 4.645 4.645 10
      vertex 4.645 4 1.55
    endloop
  endfacet
  facet normal -1 0 0
    outer loop
      vertex 4.645 -4 1.55
      vertex 4.645 -4.645 10
      vertex 4.645 4.645 10
    endloop
  endfacet
  facet normal -1 0 0
    outer loop
      vertex 4.645 -4.645 10
      vertex 4.645 -4 1.55
      vertex 4.645 -4.645 0.395
    endloop
  endfacet
  facet normal 0 1 0
    outer loop
      vertex 4.645 -4.645 10
      vertex 4 -4.645 1.55
      vertex -4.645 -4.645 10
    endloop
  endfacet
  facet normal 0 1 -0
    outer loop
      vertex 4.645 -4.645 0.395
      vertex 4 -4.645 1.55
      vertex 4.645 -4.645 10
    endloop
  endfacet
  facet normal 0 1 0
    outer loop
      vertex 4 -4.645 1.55
      vertex 4.645 -4.645 0.395
      vertex 4 -4.645 0.395
    endloop
  endfacet
  facet normal 0 1 -0
    outer loop
      vertex -4 -4.645 1.55
      vertex -4.645 -4.645 10
      vertex 4 -4.645 1.55
    endloop
  endfacet
  facet normal 0 1 0
    outer loop
      vertex -4.645 -4.645 0.395
      vertex -4 -4.645 1.55
      vertex -4 -4.645 0.395
    endloop
  endfacet
  facet normal 0 1 0
    outer loop
      vertex -4 -4.645 1.55
      vertex -4.645 -4.645 0.395
      vertex -4.645 -4.645 10
    endloop
  endfacet
  facet normal -0 0 1
    outer loop
      vertex -4.645 -4 0.395
      vertex -4 -4.645 0.395
      vertex -4 -4 0.395
    endloop
  endfacet
  facet normal 0 0 1
    outer loop
      vertex -4 -4.645 0.395
      vertex -4.645 -4 0.395
      vertex -4.645 -4.645 0.395
    endloop
  endfacet
  facet normal -0 0 1
    outer loop
      vertex 4 -4 0.395
      vertex 4.645 -4.645 0.395
      vertex 4.645 -4 0.395
    endloop
  endfacet
  facet normal 0 0 1
    outer loop
      vertex 4.645 -4.645 0.395
      vertex 4 -4 0.395
      vertex 4 -4.645 0.395
    endloop
  endfacet
  facet normal -0 0 1
    outer loop
      vertex 4 4.645 0.395
      vertex 4.645 4 0.395
      vertex 4.645 4.645 0.395
    endloop
  endfacet
  facet normal 0 0 1
    outer loop
      vertex 4.645 4 0.395
      vertex 4 4.645 0.395
      vertex 4 4 0.395
    endloop
  endfacet
  facet normal -0 0 1
    outer loop
      vertex -4.645 4.645 0.395
      vertex -4 4 0.395
      vertex -4 4.645 0.395
    endloop
  endfacet
  facet normal 0 0 1
    outer loop
      vertex -4 4 0.395
      vertex -4.645 4.645 0.395
      vertex -4.645 4 0.395
    endloop
  endfacet
  facet normal -0 0 1
    outer loop
      vertex -3.75 3.75 0.395
      vertex 3.75 -3.75 0.395
      vertex 3.75 3.75 0.395
    endloop
  endfacet
  facet normal 0 0 1
    outer loop
      vertex 3.75 -3.75 0.395
      vertex -3.75 3.75 0.395
      vertex -3.75 -3.75 0.395
    endloop
  endfacet
  facet normal 1 0 0
    outer loop
      vertex 15 15 10
      vertex 15 14 1.55
      vertex 15 15 0
    endloop
  endfacet
  facet normal 1 0 0
    outer loop
      vertex 15 15 10
      vertex 15 6 1.55
      vertex 15 14 1.55
    endloop
  endfacet
  facet normal 1 0 0
    outer loop
      vertex 15 6 1.55
      vertex 15 4 1.55
      vertex 15 6 0
    endloop
  endfacet
  facet normal 1 0 0
    outer loop
      vertex 15 15 10
      vertex 15 4 1.55
      vertex 15 6 1.55
    endloop
  endfacet
  facet normal 1 -0 0
    outer loop
      vertex 15 -5 10
      vertex 15 4 1.55
      vertex 15 15 10
    endloop
  endfacet
  facet normal 1 0 0
    outer loop
      vertex 15 4 1.55
      vertex 15 -5 10
      vertex 15 -4 1.55
    endloop
  endfacet
  facet normal 1 0 0
    outer loop
      vertex 15 -5 0
      vertex 15 -4 1.55
      vertex 15 -5 10
    endloop
  endfacet
  facet normal 1 0 0
    outer loop
      vertex 15 -4 1.55
      vertex 15 -5 0
      vertex 15 -4 0
    endloop
  endfacet
  facet normal 1 0 0
    outer loop
      vertex 15 15 0
      vertex 15 14 1.55
      vertex 15 14 0
    endloop
  endfacet
  facet normal 1 0 0
    outer loop
      vertex 15 6 0
      vertex 15 4 1.55
      vertex 15 4 0
    endloop
  endfacet
  facet normal 1 0 0
    outer loop
      vertex 5.355 4.645 10
      vertex 5.355 4 1.55
      vertex 5.355 4.645 0.395
    endloop
  endfacet
  facet normal 1 0 0
    outer loop
      vertex 5.355 4.645 10
      vertex 5.355 -4 1.55
      vertex 5.355 4 1.55
    endloop
  endfacet
  facet normal 1 -0 0
    outer loop
      vertex 5.355 -4.645 10
      vertex 5.355 -4 1.55
      vertex 5.355 4.645 10
    endloop
  endfacet
  facet normal 1 0 0
    outer loop
      vertex 5.355 -4.645 0.395
      vertex 5.355 -4 1.55
      vertex 5.355 -4.645 10
    endloop
  endfacet
  facet normal 1 0 0
    outer loop
      vertex 5.355 -4 1.55
      vertex 5.355 -4.645 0.395
      vertex 5.355 -4 0.395
    endloop
  endfacet
  facet normal 1 0 0
    outer loop
      vertex 5.355 4.645 0.395
      vertex 5.355 4 1.55
      vertex 5.355 4 0.395
    endloop
  endfacet
  facet normal 0 -1 0
    outer loop
      vertex 5.355 4.645 10
      vertex 6 4.645 1.55
      vertex 14.645 4.645 10
    endloop
  endfacet
  facet normal 0 -1 0
    outer loop
      vertex 5.355 4.645 0.395
      vertex 6 4.645 1.55
      vertex 5.355 4.645 10
    endloop
  endfacet
  facet normal 0 -1 -0
    outer loop
      vertex 6 4.645 1.55
      vertex 5.355 4.645 0.395
      vertex 6 4.645 0.395
    endloop
  endfacet
  facet normal 0 -1 0
    outer loop
      vertex 14 4.645 1.55
      vertex 14.645 4.645 10
      vertex 6 4.645 1.55
    endloop
  endfacet
  facet normal 0 -1 0
    outer loop
      vertex 14.645 4.645 0.395
      vertex 14 4.645 1.55
      vertex 14 4.645 0.395
    endloop
  endfacet
  facet normal 0 -1 0
    outer loop
      vertex 14 4.645 1.55
      vertex 14.645 4.645 0.395
      vertex 14.645 4.645 10
    endloop
  endfacet
  facet normal -1 0 0
    outer loop
      vertex 14.645 -4 0.395
      vertex 14.645 -4.645 0.395
      vertex 14.645 -4 1.55
    endloop
  endfacet
  facet normal -1 0 0
    outer loop
      vertex 14.645 4 1.55
      vertex 14.645 4.645 0.395
      vertex 14.645 4 0.395
    endloop
  endfacet
  facet normal -1 0 0
    outer loop
      vertex 14.645 4.645 0.395
      vertex 14.645 4 1.55
      vertex 14.645 4.645 10
    endloop
  endfacet
  facet normal -1 0 0
    outer loop
      vertex 14.645 -4 1.55
      vertex 14.645 4.645 10
      vertex 14.645 4 1.55
    endloop
  endfacet
  facet normal -1 0 0
    outer loop
      vertex 14.645 -4 1.55
      vertex 14.645 -4.645 10
      vertex 14.645 4.645 10
    endloop
  endfacet
  facet normal -1 0 0
    outer loop
      vertex 14.645 -4.645 10
      vertex 14.645 -4 1.55
      vertex 14.645 -4.645 0.395
    endloop
  endfacet
  facet normal 0 1 0
    outer loop
      vertex 14.645 -4.645 10
      vertex 14 -4.645 1.55
      vertex 5.355 -4.645 10
    endloop
  endfacet
  facet normal 0 1 -0
    outer loop
      vertex 14.645 -4.645 0.395
      vertex 14 -4.645 1.55
      vertex 14.645 -4.645 10
    endloop
  endfacet
  facet normal 0 1 0
    outer loop
      vertex 14 -4.645 1.55
      vertex 14.645 -4.645 0.395
      vertex 14 -4.645 0.395
    endloop
  endfacet
  facet normal 0 1 -0
    outer loop
      vertex 6 -4.645 1.55
      vertex 5.355 -4.645 10
      vertex 14 -4.645 1.55
    endloop
  endfacet
  facet normal 0 1 0
    outer loop
      vertex 5.355 -4.645 0.395
      vertex 6 -4.645 1.55
      vertex 6 -4.645 0.395
    endloop
  endfacet
  facet normal 0 1 0
    outer loop
      vertex 6 -4.645 1.55
      vertex 5.355 -4.645 0.395
      vertex 5.355 -4.645 10
    endloop
  endfacet
  facet normal -0 0 1
    outer loop
      vertex 5.355 -4 0.395
      vertex 6 -4.645 0.395
      vertex 6 -4 0.395
    endloop
  endfacet
  facet normal 0 0 1
    outer loop
      vertex 6 -4.645 0.395
      vertex 5.355 -4 0.395
      vertex 5.355 -4.645 0.395
    endloop
  endfacet
  facet normal -0 0 1
    outer loop
      vertex 14 -4 0.395
      vertex 14.645 -4.645 0.395
      vertex 14.645 -4 0.395
    endloop
  endfacet
  facet normal 0 0 1
    outer loop
      vertex 14.645 -4.645 0.395
      vertex 14 -4 0.395
      vertex 14 -4.645 0.395
    endloop
  endfacet
  facet normal -0 0 1
    outer loop
      vertex 14 4.645 0.395
      vertex 14.645 4 0.395
      vertex 14.645 4.645 0.395
    endloop
  endfacet
  facet normal 0 0 1
    outer loop
      vertex 14.645 4 0.395
      vertex 14 4.645 0.395
      vertex 14 4 0.395
    endloop
  endfacet
  facet normal -0 0 1
    outer loop
      vertex 5.355 4.645 0.395
      vertex 6 4 0.395
      vertex 6 4.645 0.395
    endloop
  endfacet
  facet normal 0 0 1
    outer loop
      vertex 6 4 0.395
      vertex 5.355 4.645 0.395
      vertex 5.355 4 0.395
    endloop
  endfacet
  facet normal -0 0 1
    outer loop
      vertex 6.25 3.75 0.395
      vertex 13.75 -3.75 0.395
      vertex 13.75 3.75 0.395
    endloop
  endfacet
  facet normal 0 0 1
    outer loop
      vertex 13.75 -3.75 0.395
      vertex 6.25 3.75 0.395
      vertex 6.25 -3.75 0.395
    endloop
  endfacet
  facet normal 0 1 -0
    outer loop
      vertex 6 15 0
      vertex 4 15 1.55
      vertex 6 15 1.55
    endloop
  endfacet
  facet normal 0 1 0
    outer loop
      vertex 4 15 1.55
      vertex 6 15 0
      vertex 4 15 0
    endloop
  endfacet
  facet normal 0 1 0
    outer loop
      vertex 6 15 1.55
      vertex 15 15 10
      vertex 14 15 1.55
    endloop
  endfacet
  facet normal 0 1 -0
    outer loop
      vertex 15 15 0
      vertex 14 15 1.55
      vertex 15 15 10
    endloop
  endfacet
  facet normal 0 1 0
    outer loop
      vertex 14 15 1.55
      vertex 15 15 0
      vertex 14 15 0
    endloop
  endfacet
  facet normal 0 1 0
    outer loop
      vertex 15 15 10
      vertex 6 15 1.55
      vertex -5 15 10
    endloop
  endfacet
  facet normal 0 1 -0
    outer loop
      vertex 4 15 1.55
      vertex -5 15 10
      vertex 6 15 1.55
    endloop
  endfacet
  facet normal 0 1 -0
    outer loop
      vertex -4 15 1.55
      vertex -5 15 10
      vertex 4 15 1.55
    endloop
  endfacet
  facet normal 0 1 0
    outer loop
      vertex -5 15 0
      vertex -4 15 1.55
      vertex -4 15 0
    endloop
  endfacet
  facet normal 0 1 0
    outer loop
      vertex -4 15 1.55
      vertex -5 15 0
      vertex -5 15 10
    endloop
  endfacet
  facet normal 1 0 0
    outer loop
      vertex -4.645 14.645 10
      vertex -4.645 14 1.55
      vertex -4.645 14.645 0.395
    endloop
  endfacet
  facet normal 1 0 0
    outer loop
      vertex -4.645 14.645 10
      vertex -4.645 6 1.55
      vertex -4.645 14 1.55
    endloop
  endfacet
  facet normal 1 -0 0
    outer loop
      vertex -4.645 5.355 10
      vertex -4.645 6 1.55
      vertex -4.645 14.645 10
    endloop
  endfacet
  facet normal 1 0 0
    outer loop
      vertex -4.645 5.355 0.395
      vertex -4.645 6 1.55
      vertex -4.645 5.355 10
    endloop
  endfacet
  facet normal 1 0 0
    outer loop
      vertex -4.645 6 1.55
      vertex -4.645 5.355 0.395
      vertex -4.645 6 0.395
    endloop
  endfacet
  facet normal 1 0 0
    outer loop
      vertex -4.645 14.645 0.395
      vertex -4.645 14 1.55
      vertex -4.645 14 0.395
    endloop
  endfacet
  facet normal 0 -1 0
    outer loop
      vertex -4.645 14.645 10
      vertex -4 14.645 1.55
      vertex 4.645 14.645 10
    endloop
  endfacet
  facet normal 0 -1 0
    outer loop
      vertex -4.645 14.645 0.395
      vertex -4 14.645 1.55
      vertex -4.645 14.645 10
    endloop
  endfacet
  facet normal 0 -1 -0
    outer loop
      vertex -4 14.645 1.55
      vertex -4.645 14.645 0.395
      vertex -4 14.645 0.395
    endloop
  endfacet
  facet normal 0 -1 0
    outer loop
      vertex 4 14.645 1.55
      vertex 4.645 14.645 10
      vertex -4 14.645 1.55
    endloop
  endfacet
  facet normal 0 -1 0
    outer loop
      vertex 4.645 14.645 0.395
      vertex 4 14.645 1.55
      vertex 4 14.645 0.395
    endloop
  endfacet
  facet normal 0 -1 0
    outer loop
      vertex 4 14.645 1.55
      vertex 4.645 14.645 0.395
      vertex 4.645 14.645 10
    endloop
  endfacet
  facet normal -1 0 0
    outer loop
      vertex 4.645 6 0.395
      vertex 4.645 5.355 0.395
      vertex 4.645 6 1.55
    endloop
  endfacet
  facet normal -1 0 0
    outer loop
      vertex 4.645 14 1.55
      vertex 4.645 14.645 0.395
      vertex 4.645 14 0.395
    endloop
  endfacet
  facet normal -1 0 0
    outer loop
      vertex 4.645 14.645 0.395
      vertex 4.645 14 1.55
      vertex 4.645 14.645 10
    endloop
  endfacet
  facet normal -1 0 0
    outer loop
      vertex 4.645 6 1.55
      vertex 4.645 14.645 10
      vertex 4.645 14 1.55
    endloop
  endfacet
  facet normal -1 0 0
    outer loop
      vertex 4.645 6 1.55
      vertex 4.645 5.355 10
      vertex 4.645 14.645 10
    endloop
  endfacet
  facet normal -1 0 0
    outer loop
      vertex 4.645 5.355 10
      vertex 4.645 6 1.55
      vertex 4.645 5.355 0.395
    endloop
  endfacet
  facet normal 0 1 0
    outer loop
      vertex 4.645 5.355 10
      vertex 4 5.355 1.55
      vertex -4.645 5.355 10
    endloop
  endfacet
  facet normal 0 1 -0
    outer loop
      vertex 4.645 5.355 0.395
      vertex 4 5.355 1.55
      vertex 4.645 5.355 10
    endloop
  endfacet
  facet normal 0 1 0
    outer loop
      vertex 4 5.355 1.55
      vertex 4.645 5.355 0.395
      vertex 4 5.355 0.395
    endloop
  endfacet
  facet normal 0 1 -0
    outer loop
      vertex -4 5.355 1.55
      vertex -4.645 5.355 10
      vertex 4 5.355 1.55
    endloop
  endfacet
  facet normal 0 1 0
    outer loop
      vertex -4.645 5.355 0.395
      vertex -4 5.355 1.55
      vertex -4 5.355 0.395
    endloop
  endfacet
  facet normal 0 1 0
    outer loop
      vertex -4 5.355 1.55
      vertex -4.645 5.355 0.395
      vertex -4.645 5.355 10
    endloop
  endfacet
  facet normal -0 0 1
    outer loop
      vertex -4.645 6 0.395
      vertex -4 5.355 0.395
      vertex -4 6 0.395
    endloop
  endfacet
  facet normal 0 0 1
    outer loop
      vertex -4 5.355 0.395
      vertex -4.645 6 0.395
      vertex -4.645 5.355 0.395
    endloop
  endfacet
  facet normal -0 0 1
    outer loop
      vertex 4 6 0.395
      vertex 4.645 5.355 0.395
      vertex 4.645 6 0.395
    endloop
  endfacet
  facet normal 0 0 1
    outer loop
      vertex 4.645 5.355 0.395
      vertex 4 6 0.395
      vertex 4 5.355 0.395
    endloop
  endfacet
  facet normal -0 0 1
    outer loop
      vertex 4 14.645 0.395
      vertex 4.645 14 0.395
      vertex 4.645 14.645 0.395
    endloop
  endfacet
  facet normal 0 0 1
    outer loop
      vertex 4.645 14 0.395
      vertex 4 14.645 0.395
      vertex 4 14 0.395
    endloop
  endfacet
  facet normal -0 0 1
    outer loop
      vertex -4.645 14.645 0.395
      vertex -4 14 0.395
      vertex -4 14.645 0.395
    endloop
  endfacet
  facet normal 0 0 1
    outer loop
      vertex -4 14 0.395
      vertex -4.645 14.645 0.395
      vertex -4.645 14 0.395
    endloop
  endfacet
  facet normal -0 0 1
    outer loop
      vertex -3.75 13.75 0.395
      vertex 3.75 6.25 0.395
      vertex 3.75 13.75 0.395
    endloop
  endfacet
  facet normal 0 0 1
    outer loop
      vertex 3.75 6.25 0.395
      vertex -3.75 13.75 0.395
      vertex -3.75 6.25 0.395
    endloop
  endfacet
  facet normal 1 0 0
    outer loop
      vertex 5.355 14.645 10
      vertex 5.355 14 1.55
      vertex 5.355 14.645 0.395
    endloop
  endfacet
  facet normal 1 0 0
    outer loop
      vertex 5.355 14.645 10
      vertex 5.355 6 1.55
      vertex 5.355 14 1.55
    endloop
  endfacet
  facet normal 1 -0 0
    outer loop
      vertex 5.355 5.355 10
      vertex 5.355 6 1.55
      vertex 5.355 14.645 10
    endloop
  endfacet
  facet normal 1 0 0
    outer loop
      vertex 5.355 5.355 0.395
      vertex 5.355 6 1.55
      vertex 5.355 5.355 10
    endloop
  endfacet
  facet normal 1 0 0
    outer loop
      vertex 5.355 6 1.55
      vertex 5.355 5.355 0.395
      vertex 5.355 6 0.395
    endloop
  endfacet
  facet normal 1 0 0
    outer loop
      vertex 5.355 14.645 0.395
      vertex 5.355 14 1.55
      vertex 5.355 14 0.395
    endloop
  endfacet
  facet normal 0 -1 0
    outer loop
      vertex 5.355 14.645 10
      vertex 6 14.645 1.55
      vertex 14.645 14.645 10
    endloop
  endfacet
  facet normal 0 -1 0
    outer loop
      vertex 5.355 14.645 0.395
      vertex 6 14.645 1.55
      vertex 5.355 14.645 10
    endloop
  endfacet
  facet normal 0 -1 -0
    outer loop
      vertex 6 14.645 1.55
      vertex 5.355 14.645 0.395
      vertex 6 14.645 0.395
    endloop
  endfacet
  facet normal 0 -1 0
    outer loop
      vertex 14 14.645 1.55
      vertex 14.645 14.645 10
      vertex 6 14.645 1.55
    endloop
  endfacet
  facet normal 0 -1 0
    outer loop
      vertex 14.645 14.645 0.395
      vertex 14 14.645 1.55
      vertex 14 14.645 0.395
    endloop
  endfacet
  facet normal 0 -1 0
    outer loop
      vertex 14 14.645 1.55
      vertex 14.645 14.645 0.395
      vertex 14.645 14.645 10
    endloop
  endfacet
  facet normal -1 0 0
    outer loop
      vertex 14.645 6 0.395
      vertex 14.645 5.355 0.395
      vertex 14.645 6 1.55
    endloop
  endfacet
  facet normal -1 0 0
    outer loop
      vertex 14.645 14 1.55
      vertex 14.645 14.645 0.395
      vertex 14.645 14 0.395
    endloop
  endfacet
  facet normal -1 0 0
    outer loop
      vertex 14.645 14.645 0.395
      vertex 14.645 14 1.55
      vertex 14.645 14.645 10
    endloop
  endfacet
  facet normal -1 0 0
    outer loop
      vertex 14.645 6 1.55
      vertex 14.645 14.645 10
      vertex 14.645 14 1.55
    endloop
  endfacet
  facet normal -1 0 0
    outer loop
      vertex 14.645 6 1.55
      vertex 14.645 5.355 10
      vertex 14.645 14.645 10
    endloop
  endfacet
  facet normal -1 0 0
    outer loop
      vertex 14.645 5.355 10
      vertex 14.645 6 1.55
      vertex 14.645 5.355 0.395
    endloop
  endfacet
  facet normal 0 1 0
    outer loop
      vertex 14.645 5.355 10
      vertex 14 5.355 1.55
      vertex 5.355 5.355 10
    endloop
  endfacet
  facet normal 0 1 -0
    outer loop
      vertex 14.645 5.355 0.395
      vertex 14 5.355 1.55
      vertex 14.645 5.355 10
    endloop
  endfacet
  facet normal 0 1 0
    outer loop
      vertex 14 5.355 1.55
      vertex 14.645 5.355 0.395
      vertex 14 5.355 0.395
    endloop
  endfacet
  facet normal 0 1 -0
    outer loop
      vertex 6 5.355 1.55
      vertex 5.355 5.355 10
      vertex 14 5.355 1.55
    endloop
  endfacet
  facet normal 0 1 0
    outer loop
      vertex 5.355 5.355 0.395
      vertex 6 5.355 1.55
      vertex 6 5.355 0.395
    endloop
  endfacet
  facet normal 0 1 0
    outer loop
      vertex 6 5.355 1.55
      vertex 5.355 5.355 0.395
      vertex 5.355 5.355 10
    endloop
  endfacet
  facet normal -0 0 1
    outer loop
      vertex 5.355 6 0.395
      vertex 6 5.355 0.395
      vertex 6 6 0.395
    endloop
  endfacet
  facet normal 0 0 1
    outer loop
      vertex 6 5.355 0.395
      vertex 5.355 6 0.395
      vertex 5.355 5.355 0.395
    endloop
  endfacet
  facet normal -0 0 1
    outer loop
      vertex 14 6 0.395
      vertex 14.645 5.355 0.395
      vertex 14.645 6 0.395
    endloop
  endfacet
  facet normal 0 0 1
    outer loop
      vertex 14.645 5.355 0.395
      vertex 14 6 0.395
      vertex 14 5.355 0.395
    endloop
  endfacet
  facet normal -0 0 1
    outer loop
      vertex 14 14.645 0.395
      vertex 14.645 14 0.395
      vertex 14.645 14.645 0.395
    endloop
  endfacet
  facet normal 0 0 1
    outer loop
      vertex 14.645 14 0.395
      vertex 14 14.645 0.395
      vertex 14 14 0.395
    endloop
  endfacet
  facet normal -0 0 1
    outer loop
      vertex 5.355 14.645 0.395
      vertex 6 14 0.395
      vertex 6 14.645 0.395
    endloop
  endfacet
  facet normal 0 0 1
    outer loop
      vertex 6 14 0.395
      vertex 5.355 14.645 0.395
      vertex 5.355 14 0.395
    endloop
  endfacet
  facet normal -0 0 1
    outer loop
      vertex 6.25 13.75 0.395
      vertex 13.75 6.25 0.395
      vertex 13.75 13.75 0.395
    endloop
  endfacet
  facet normal 0 0 1
    outer loop
      vertex 13.75 6.25 0.395
      vertex 6.25 13.75 0.395
      vertex 6.25 6.25 0.395
    endloop
  endfacet
  facet normal -1 0 0
    outer loop
      vertex 6.25 -3.75 0
      vertex 6.25 3.75 0.395
      vertex 6.25 3.75 0
    endloop
  endfacet
  facet normal -1 -0 0
    outer loop
      vertex 6.25 3.75 0.395
      vertex 6.25 -3.75 0
      vertex 6.25 -3.75 0.395
    endloop
  endfacet
  facet normal 0 0 -1
    outer loop
      vertex -5 -4 1.55
      vertex -4.645 4 1.55
      vertex -4.645 -4 1.55
    endloop
  endfacet
  facet normal -0 0 -1
    outer loop
      vertex -4.645 4 1.55
      vertex -5 -4 1.55
      vertex -5 4 1.55
    endloop
  endfacet
  facet normal 0 0 -1
    outer loop
      vertex -5 6 1.55
      vertex -4.645 14 1.55
      vertex -4.645 6 1.55
    endloop
  endfacet
  facet normal -0 0 -1
    outer loop
      vertex -4.645 14 1.55
      vertex -5 6 1.55
      vertex -5 14 1.55
    endloop
  endfacet
  facet normal 0 0 -1
    outer loop
      vertex -4 -5 1.55
      vertex 4 -4.645 1.55
      vertex 4 -5 1.55
    endloop
  endfacet
  facet normal -0 0 -1
    outer loop
      vertex 4 -4.645 1.55
      vertex -4 -5 1.55
      vertex -4 -4.645 1.55
    endloop
  endfacet
  facet normal 0 0 -1
    outer loop
      vertex 6 -5 1.55
      vertex 14 -4.645 1.55
      vertex 14 -5 1.55
    endloop
  endfacet
  facet normal -0 0 -1
    outer loop
      vertex 14 -4.645 1.55
      vertex 6 -5 1.55
      vertex 6 -4.645 1.55
    endloop
  endfacet
  facet normal 0 0 -1
    outer loop
      vertex -4 14.645 1.55
      vertex 4 15 1.55
      vertex 4 14.645 1.55
    endloop
  endfacet
  facet normal -0 0 -1
    outer loop
      vertex 4 15 1.55
      vertex -4 14.645 1.55
      vertex -4 15 1.55
    endloop
  endfacet
  facet normal 0 0 -1
    outer loop
      vertex 6 14.645 1.55
      vertex 14 15 1.55
      vertex 14 14.645 1.55
    endloop
  endfacet
  facet normal -0 0 -1
    outer loop
      vertex 14 15 1.55
      vertex 6 14.645 1.55
      vertex 6 15 1.55
    endloop
  endfacet
  facet normal 0 0 -1
    outer loop
      vertex -4 4.645 1.55
      vertex 4 5.355 1.55
      vertex 4 4.645 1.55
    endloop
  endfacet
  facet normal -0 0 -1
    outer loop
      vertex 4 5.355 1.55
      vertex -4 4.645 1.55
      vertex -4 5.355 1.55
    endloop
  endfacet
  facet normal 0 0 -1
    outer loop
      vertex 4.645 -4 1.55
      vertex 5.355 4 1.55
      vertex 5.355 -4 1.55
    endloop
  endfacet
  facet normal -0 0 -1
    outer loop
      vertex 5.355 4 1.55
      vertex 4.645 -4 1.55
      vertex 4.645 4 1.55
    endloop
  endfacet
  facet normal 0 0 -1
    outer loop
      vertex 4.645 6 1.55
      vertex 5.355 14 1.55
      vertex 5.355 6 1.55
    endloop
  endfacet
  facet normal -0 0 -1
    outer loop
      vertex 5.355 14 1.55
      vertex 4.645 6 1.55
      vertex 4.645 14 1.55
    endloop
  endfacet
  facet normal 0 0 -1
    outer loop
      vertex 6 4.645 1.55
      vertex 14 5.355 1.55
      vertex 14 4.645 1.55
    endloop
  endfacet
  facet normal -0 0 -1
    outer loop
      vertex 14 5.355 1.55
      vertex 6 4.645 1.55
      vertex 6 5.355 1.55
    endloop
  endfacet
  facet normal 0 0 -1
    outer loop
      vertex 14.645 -4 1.55
      vertex 15 4 1.55
      vertex 15 -4 1.55
    endloop
  endfacet
  facet normal -0 0 -1
    outer loop
      vertex 15 4 1.55
      vertex 14.645 -4 1.55
      vertex 14.645 4 1.55
    endloop
  endfacet
  facet normal 0 0 -1
    outer loop
      vertex 14.645 6 1.55
      vertex 15 14 1.55
      vertex 15 6 1.55
    endloop
  endfacet
  facet normal -0 0 -1
    outer loop
      vertex 15 14 1.55
      vertex 14.645 6 1.55
      vertex 14.645 14 1.55
    endloop
  endfacet
  facet normal 1 -0 0
    outer loop
      vertex 3.75 -3.75 0.395
      vertex 3.75 3.75 0
      vertex 3.75 3.75 0.395
    endloop
  endfacet
  facet normal 1 0 0
    outer loop
      vertex 3.75 3.75 0
      vertex 3.75 -3.75 0.395
      vertex 3.75 -3.75 0
    endloop
  endfacet
  facet normal 0 -1 0
    outer loop
      vertex 4 4 0
      vertex 4.645 4 0.395
      vertex 4 4 0.395
    endloop
  endfacet
  facet normal 0 -1 -0
    outer loop
      vertex 4.645 4 0.395
      vertex 4 4 0
      vertex 5.355 4 0.395
    endloop
  endfacet
  facet normal 0 -1 0
    outer loop
      vertex 6 4 0
      vertex 5.355 4 0.395
      vertex 4 4 0
    endloop
  endfacet
  facet normal 0 -1 0
    outer loop
      vertex 5.355 4 0.395
      vertex 6 4 0
      vertex 6 4 0.395
    endloop
  endfacet
  facet normal 0 -1 0
    outer loop
      vertex 4.645 4 0.395
      vertex 5.355 4 1.55
      vertex 4.645 4 1.55
    endloop
  endfacet
  facet normal 0 -1 -0
    outer loop
      vertex 5.355 4 1.55
      vertex 4.645 4 0.395
      vertex 5.355 4 0.395
    endloop
  endfacet
  facet normal 0 1 -0
    outer loop
      vertex 6 -4 0
      vertex 5.355 -4 0.395
      vertex 6 -4 0.395
    endloop
  endfacet
  facet normal 0 1 0
    outer loop
      vertex 5.355 -4 0.395
      vertex 6 -4 0
      vertex 4.645 -4 0.395
    endloop
  endfacet
  facet normal 0 1 0
    outer loop
      vertex 4 -4 0
      vertex 4.645 -4 0.395
      vertex 6 -4 0
    endloop
  endfacet
  facet normal 0 1 0
    outer loop
      vertex 4.645 -4 0.395
      vertex 4 -4 0
      vertex 4 -4 0.395
    endloop
  endfacet
  facet normal 0 1 -0
    outer loop
      vertex 5.355 -4 0.395
      vertex 4.645 -4 1.55
      vertex 5.355 -4 1.55
    endloop
  endfacet
  facet normal 0 1 0
    outer loop
      vertex 4.645 -4 1.55
      vertex 5.355 -4 0.395
      vertex 4.645 -4 0.395
    endloop
  endfacet
  facet normal 0 1 -0
    outer loop
      vertex 3.75 3.75 0
      vertex -3.75 3.75 0.395
      vertex 3.75 3.75 0.395
    endloop
  endfacet
  facet normal 0 1 0
    outer loop
      vertex -3.75 3.75 0.395
      vertex 3.75 3.75 0
      vertex -3.75 3.75 0
    endloop
  endfacet
  facet normal 1 0 0
    outer loop
      vertex -4 5.355 1.55
      vertex -4 4.645 1.55
      vertex -4 5.355 0.395
    endloop
  endfacet
  facet normal 1 -0 0
    outer loop
      vertex -4 5.355 0.395
      vertex -4 6 0
      vertex -4 6 0.395
    endloop
  endfacet
  facet normal 1 0 0
    outer loop
      vertex -4 4.645 0.395
      vertex -4 5.355 0.395
      vertex -4 4.645 1.55
    endloop
  endfacet
  facet normal 1 -0 0
    outer loop
      vertex -4 4.645 0.395
      vertex -4 6 0
      vertex -4 5.355 0.395
    endloop
  endfacet
  facet normal 1 0 0
    outer loop
      vertex -4 4 0
      vertex -4 4.645 0.395
      vertex -4 4 0.395
    endloop
  endfacet
  facet normal 1 0 0
    outer loop
      vertex -4 4.645 0.395
      vertex -4 4 0
      vertex -4 6 0
    endloop
  endfacet
  facet normal -1 0 0
    outer loop
      vertex 4 6 0
      vertex 4 5.355 0.395
      vertex 4 6 0.395
    endloop
  endfacet
  facet normal -1 0 0
    outer loop
      vertex 4 5.355 0.395
      vertex 4 4.645 0.395
      vertex 4 5.355 1.55
    endloop
  endfacet
  facet normal -1 0 0
    outer loop
      vertex 4 6 0
      vertex 4 4.645 0.395
      vertex 4 5.355 0.395
    endloop
  endfacet
  facet normal -1 0 0
    outer loop
      vertex 4 4 0
      vertex 4 4.645 0.395
      vertex 4 6 0
    endloop
  endfacet
  facet normal -1 -0 0
    outer loop
      vertex 4 4.645 0.395
      vertex 4 4 0
      vertex 4 4 0.395
    endloop
  endfacet
  facet normal -1 -0 0
    outer loop
      vertex 4 5.355 1.55
      vertex 4 4.645 0.395
      vertex 4 4.645 1.55
    endloop
  endfacet
  facet normal 0 -1 0
    outer loop
      vertex -3.75 6.25 0
      vertex 3.75 6.25 0.395
      vertex -3.75 6.25 0.395
    endloop
  endfacet
  facet normal 0 -1 -0
    outer loop
      vertex 3.75 6.25 0.395
      vertex -3.75 6.25 0
      vertex 3.75 6.25 0
    endloop
  endfacet
  facet normal -1 0 0
    outer loop
      vertex -3.75 -3.75 0
      vertex -3.75 3.75 0.395
      vertex -3.75 3.75 0
    endloop
  endfacet
  facet normal -1 -0 0
    outer loop
      vertex -3.75 3.75 0.395
      vertex -3.75 -3.75 0
      vertex -3.75 -3.75 0.395
    endloop
  endfacet
  facet normal 0 1 0
    outer loop
      vertex -4 -4 0.395
      vertex -4 -4 0
      vertex -4.645 -4 0.395
    endloop
  endfacet
  facet normal 0 1 -0
    outer loop
      vertex -4.645 -4 0.395
      vertex -5 -4 1.55
      vertex -4.645 -4 1.55
    endloop
  endfacet
  facet normal 0 1 0
    outer loop
      vertex -4.645 -4 0.395
      vertex -5 -4 0
      vertex -5 -4 1.55
    endloop
  endfacet
  facet normal 0 1 0
    outer loop
      vertex -5 -4 0
      vertex -4.645 -4 0.395
      vertex -4 -4 0
    endloop
  endfacet
  facet normal 0 -1 0
    outer loop
      vertex -5 4 1.55
      vertex -4.645 4 0.395
      vertex -4.645 4 1.55
    endloop
  endfacet
  facet normal 0 -1 0
    outer loop
      vertex -5 4 0
      vertex -4.645 4 0.395
      vertex -5 4 1.55
    endloop
  endfacet
  facet normal 0 -1 0
    outer loop
      vertex -4 4 0
      vertex -4.645 4 0.395
      vertex -5 4 0
    endloop
  endfacet
  facet normal 0 -1 0
    outer loop
      vertex -4.645 4 0.395
      vertex -4 4 0
      vertex -4 4 0.395
    endloop
  endfacet
  facet normal 0 -1 0
    outer loop
      vertex -3.75 -3.75 0
      vertex 3.75 -3.75 0.395
      vertex -3.75 -3.75 0.395
    endloop
  endfacet
  facet normal 0 -1 -0
    outer loop
      vertex 3.75 -3.75 0.395
      vertex -3.75 -3.75 0
      vertex 3.75 -3.75 0
    endloop
  endfacet
  facet normal -1 0 0
    outer loop
      vertex 4 -4 0
      vertex 4 -4.645 0.395
      vertex 4 -4 0.395
    endloop
  endfacet
  facet normal -1 0 0
    outer loop
      vertex 4 -5 0
      vertex 4 -4.645 0.395
      vertex 4 -4 0
    endloop
  endfacet
  facet normal -1 0 0
    outer loop
      vertex 4 -5 1.55
      vertex 4 -4.645 0.395
      vertex 4 -5 0
    endloop
  endfacet
  facet normal -1 0 0
    outer loop
      vertex 4 -4.645 0.395
      vertex 4 -5 1.55
      vertex 4 -4.645 1.55
    endloop
  endfacet
  facet normal 1 0 0
    outer loop
      vertex -4 -4.645 1.55
      vertex -4 -5 1.55
      vertex -4 -4.645 0.395
    endloop
  endfacet
  facet normal 1 -0 0
    outer loop
      vertex -4 -4.645 0.395
      vertex -4 -4 0
      vertex -4 -4 0.395
    endloop
  endfacet
  facet normal 1 0 0
    outer loop
      vertex -4 -4.645 0.395
      vertex -4 -5 0
      vertex -4 -4 0
    endloop
  endfacet
  facet normal 1 0 0
    outer loop
      vertex -4 -5 0
      vertex -4 -4.645 0.395
      vertex -4 -5 1.55
    endloop
  endfacet
  facet normal 1 -0 0
    outer loop
      vertex 13.75 -3.75 0.395
      vertex 13.75 3.75 0
      vertex 13.75 3.75 0.395
    endloop
  endfacet
  facet normal 1 0 0
    outer loop
      vertex 13.75 3.75 0
      vertex 13.75 -3.75 0.395
      vertex 13.75 -3.75 0
    endloop
  endfacet
  facet normal 0 -1 0
    outer loop
      vertex 14 4 0.395
      vertex 14 4 0
      vertex 14.645 4 0.395
    endloop
  endfacet
  facet normal 0 -1 0
    outer loop
      vertex 14.645 4 0.395
      vertex 15 4 1.55
      vertex 14.645 4 1.55
    endloop
  endfacet
  facet normal 0 -1 0
    outer loop
      vertex 14.645 4 0.395
      vertex 15 4 0
      vertex 15 4 1.55
    endloop
  endfacet
  facet normal 0 -1 0
    outer loop
      vertex 15 4 0
      vertex 14.645 4 0.395
      vertex 14 4 0
    endloop
  endfacet
  facet normal 0 1 0
    outer loop
      vertex 15 -4 1.55
      vertex 14.645 -4 0.395
      vertex 14.645 -4 1.55
    endloop
  endfacet
  facet normal 0 1 -0
    outer loop
      vertex 15 -4 0
      vertex 14.645 -4 0.395
      vertex 15 -4 1.55
    endloop
  endfacet
  facet normal 0 1 0
    outer loop
      vertex 14 -4 0
      vertex 14.645 -4 0.395
      vertex 15 -4 0
    endloop
  endfacet
  facet normal 0 1 0
    outer loop
      vertex 14.645 -4 0.395
      vertex 14 -4 0
      vertex 14 -4 0.395
    endloop
  endfacet
  facet normal 0 1 -0
    outer loop
      vertex 13.75 3.75 0
      vertex 6.25 3.75 0.395
      vertex 13.75 3.75 0.395
    endloop
  endfacet
  facet normal 0 1 0
    outer loop
      vertex 6.25 3.75 0.395
      vertex 13.75 3.75 0
      vertex 6.25 3.75 0
    endloop
  endfacet
  facet normal 1 0 0
    outer loop
      vertex 6 5.355 1.55
      vertex 6 4.645 1.55
      vertex 6 5.355 0.395
    endloop
  endfacet
  facet normal 1 -0 0
    outer loop
      vertex 6 5.355 0.395
      vertex 6 6 0
      vertex 6 6 0.395
    endloop
  endfacet
  facet normal 1 0 0
    outer loop
      vertex 6 4.645 0.395
      vertex 6 5.355 0.395
      vertex 6 4.645 1.55
    endloop
  endfacet
  facet normal 1 -0 0
    outer loop
      vertex 6 4.645 0.395
      vertex 6 6 0
      vertex 6 5.355 0.395
    endloop
  endfacet
  facet normal 1 0 0
    outer loop
      vertex 6 4 0
      vertex 6 4.645 0.395
      vertex 6 4 0.395
    endloop
  endfacet
  facet normal 1 0 0
    outer loop
      vertex 6 4.645 0.395
      vertex 6 4 0
      vertex 6 6 0
    endloop
  endfacet
  facet normal -1 0 0
    outer loop
      vertex 14 6 0
      vertex 14 5.355 0.395
      vertex 14 6 0.395
    endloop
  endfacet
  facet normal -1 0 0
    outer loop
      vertex 14 5.355 0.395
      vertex 14 4.645 0.395
      vertex 14 5.355 1.55
    endloop
  endfacet
  facet normal -1 0 0
    outer loop
      vertex 14 6 0
      vertex 14 4.645 0.395
      vertex 14 5.355 0.395
    endloop
  endfacet
  facet normal -1 0 0
    outer loop
      vertex 14 4 0
      vertex 14 4.645 0.395
      vertex 14 6 0
    endloop
  endfacet
  facet normal -1 -0 0
    outer loop
      vertex 14 4.645 0.395
      vertex 14 4 0
      vertex 14 4 0.395
    endloop
  endfacet
  facet normal -1 -0 0
    outer loop
      vertex 14 5.355 1.55
      vertex 14 4.645 0.395
      vertex 14 4.645 1.55
    endloop
  endfacet
  facet normal 0 -1 0
    outer loop
      vertex 6.25 6.25 0
      vertex 13.75 6.25 0.395
      vertex 6.25 6.25 0.395
    endloop
  endfacet
  facet normal 0 -1 -0
    outer loop
      vertex 13.75 6.25 0.395
      vertex 6.25 6.25 0
      vertex 13.75 6.25 0
    endloop
  endfacet
  facet normal 0 -1 0
    outer loop
      vertex 6.25 -3.75 0
      vertex 13.75 -3.75 0.395
      vertex 6.25 -3.75 0.395
    endloop
  endfacet
  facet normal 0 -1 -0
    outer loop
      vertex 13.75 -3.75 0.395
      vertex 6.25 -3.75 0
      vertex 13.75 -3.75 0
    endloop
  endfacet
  facet normal -1 0 0
    outer loop
      vertex 14 -4 0
      vertex 14 -4.645 0.395
      vertex 14 -4 0.395
    endloop
  endfacet
  facet normal -1 0 0
    outer loop
      vertex 14 -5 0
      vertex 14 -4.645 0.395
      vertex 14 -4 0
    endloop
  endfacet
  facet normal -1 0 0
    outer loop
      vertex 14 -5 1.55
      vertex 14 -4.645 0.395
      vertex 14 -5 0
    endloop
  endfacet
  facet normal -1 0 0
    outer loop
      vertex 14 -4.645 0.395
      vertex 14 -5 1.55
      vertex 14 -4.645 1.55
    endloop
  endfacet
  facet normal 1 0 0
    outer loop
      vertex 6 -4.645 1.55
      vertex 6 -5 1.55
      vertex 6 -4.645 0.395
    endloop
  endfacet
  facet normal 1 -0 0
    outer loop
      vertex 6 -4.645 0.395
      vertex 6 -4 0
      vertex 6 -4 0.395
    endloop
  endfacet
  facet normal 1 0 0
    outer loop
      vertex 6 -4.645 0.395
      vertex 6 -5 0
      vertex 6 -4 0
    endloop
  endfacet
  facet normal 1 0 0
    outer loop
      vertex 6 -5 0
      vertex 6 -4.645 0.395
      vertex 6 -5 1.55
    endloop
  endfacet
  facet normal -1 0 0
    outer loop
      vertex 6.25 6.25 0
      vertex 6.25 13.75 0.395
      vertex 6.25 13.75 0
    endloop
  endfacet
  facet normal -1 -0 0
    outer loop
      vertex 6.25 13.75 0.395
      vertex 6.25 6.25 0
      vertex 6.25 6.25 0.395
    endloop
  endfacet
  facet normal 1 -0 0
    outer loop
      vertex 3.75 6.25 0.395
      vertex 3.75 13.75 0
      vertex 3.75 13.75 0.395
    endloop
  endfacet
  facet normal 1 0 0
    outer loop
      vertex 3.75 13.75 0
      vertex 3.75 6.25 0.395
      vertex 3.75 6.25 0
    endloop
  endfacet
  facet normal 0 -1 0
    outer loop
      vertex 4 14 0
      vertex 4.645 14 0.395
      vertex 4 14 0.395
    endloop
  endfacet
  facet normal 0 -1 -0
    outer loop
      vertex 4.645 14 0.395
      vertex 4 14 0
      vertex 5.355 14 0.395
    endloop
  endfacet
  facet normal 0 -1 0
    outer loop
      vertex 6 14 0
      vertex 5.355 14 0.395
      vertex 4 14 0
    endloop
  endfacet
  facet normal 0 -1 0
    outer loop
      vertex 5.355 14 0.395
      vertex 6 14 0
      vertex 6 14 0.395
    endloop
  endfacet
  facet normal 0 -1 0
    outer loop
      vertex 4.645 14 0.395
      vertex 5.355 14 1.55
      vertex 4.645 14 1.55
    endloop
  endfacet
  facet normal 0 -1 -0
    outer loop
      vertex 5.355 14 1.55
      vertex 4.645 14 0.395
      vertex 5.355 14 0.395
    endloop
  endfacet
  facet normal 0 1 -0
    outer loop
      vertex 6 6 0
      vertex 5.355 6 0.395
      vertex 6 6 0.395
    endloop
  endfacet
  facet normal 0 1 0
    outer loop
      vertex 5.355 6 0.395
      vertex 6 6 0
      vertex 4.645 6 0.395
    endloop
  endfacet
  facet normal 0 1 0
    outer loop
      vertex 4 6 0
      vertex 4.645 6 0.395
      vertex 6 6 0
    endloop
  endfacet
  facet normal 0 1 0
    outer loop
      vertex 4.645 6 0.395
      vertex 4 6 0
      vertex 4 6 0.395
    endloop
  endfacet
  facet normal 0 1 -0
    outer loop
      vertex 5.355 6 0.395
      vertex 4.645 6 1.55
      vertex 5.355 6 1.55
    endloop
  endfacet
  facet normal 0 1 0
    outer loop
      vertex 4.645 6 1.55
      vertex 5.355 6 0.395
      vertex 4.645 6 0.395
    endloop
  endfacet
  facet normal 0 1 -0
    outer loop
      vertex 3.75 13.75 0
      vertex -3.75 13.75 0.395
      vertex 3.75 13.75 0.395
    endloop
  endfacet
  facet normal 0 1 0
    outer loop
      vertex -3.75 13.75 0.395
      vertex 3.75 13.75 0
      vertex -3.75 13.75 0
    endloop
  endfacet
  facet normal 1 0 0
    outer loop
      vertex -4 14.645 0.395
      vertex -4 15 1.55
      vertex -4 14.645 1.55
    endloop
  endfacet
  facet normal 1 0 0
    outer loop
      vertex -4 15 1.55
      vertex -4 14.645 0.395
      vertex -4 15 0
    endloop
  endfacet
  facet normal 1 0 0
    outer loop
      vertex -4 14 0
      vertex -4 14.645 0.395
      vertex -4 14 0.395
    endloop
  endfacet
  facet normal 1 0 0
    outer loop
      vertex -4 14.645 0.395
      vertex -4 14 0
      vertex -4 15 0
    endloop
  endfacet
  facet normal -1 0 0
    outer loop
      vertex 4 15 0
      vertex 4 14.645 0.395
      vertex 4 15 1.55
    endloop
  endfacet
  facet normal -1 0 0
    outer loop
      vertex 4 14 0
      vertex 4 14.645 0.395
      vertex 4 15 0
    endloop
  endfacet
  facet normal -1 -0 0
    outer loop
      vertex 4 14.645 0.395
      vertex 4 14 0
      vertex 4 14 0.395
    endloop
  endfacet
  facet normal -1 -0 0
    outer loop
      vertex 4 15 1.55
      vertex 4 14.645 0.395
      vertex 4 14.645 1.55
    endloop
  endfacet
  facet normal -1 0 0
    outer loop
      vertex -3.75 6.25 0
      vertex -3.75 13.75 0.395
      vertex -3.75 13.75 0
    endloop
  endfacet
  facet normal -1 -0 0
    outer loop
      vertex -3.75 13.75 0.395
      vertex -3.75 6.25 0
      vertex -3.75 6.25 0.395
    endloop
  endfacet
  facet normal 0 1 0
    outer loop
      vertex -4 6 0.395
      vertex -4 6 0
      vertex -4.645 6 0.395
    endloop
  endfacet
  facet normal 0 1 -0
    outer loop
      vertex -4.645 6 0.395
      vertex -5 6 1.55
      vertex -4.645 6 1.55
    endloop
  endfacet
  facet normal 0 1 0
    outer loop
      vertex -4.645 6 0.395
      vertex -5 6 0
      vertex -5 6 1.55
    endloop
  endfacet
  facet normal 0 1 0
    outer loop
      vertex -5 6 0
      vertex -4.645 6 0.395
      vertex -4 6 0
    endloop
  endfacet
  facet normal 0 -1 0
    outer loop
      vertex -5 14 1.55
      vertex -4.645 14 0.395
      vertex -4.645 14 1.55
    endloop
  endfacet
  facet normal 0 -1 0
    outer loop
      vertex -5 14 0
      vertex -4.645 14 0.395
      vertex -5 14 1.55
    endloop
  endfacet
  facet normal 0 -1 0
    outer loop
      vertex -4 14 0
      vertex -4.645 14 0.395
      vertex -5 14 0
    endloop
  endfacet
  facet normal 0 -1 0
    outer loop
      vertex -4.645 14 0.395
      vertex -4 14 0
      vertex -4 14 0.395
    endloop
  endfacet
  facet normal 1 -0 0
    outer loop
      vertex 13.75 6.25 0.395
      vertex 13.75 13.75 0
      vertex 13.75 13.75 0.395
    endloop
  endfacet
  facet normal 1 0 0
    outer loop
      vertex 13.75 13.75 0
      vertex 13.75 6.25 0.395
      vertex 13.75 6.25 0
    endloop
  endfacet
  facet normal 0 -1 0
    outer loop
      vertex 14 14 0.395
      vertex 14 14 0
      vertex 14.645 14 0.395
    endloop
  endfacet
  facet normal 0 -1 0
    outer loop
      vertex 14.645 14 0.395
      vertex 15 14 1.55
      vertex 14.645 14 1.55
    endloop
  endfacet
  facet normal 0 -1 0
    outer loop
      vertex 14.645 14 0.395
      vertex 15 14 0
      vertex 15 14 1.55
    endloop
  endfacet
  facet normal 0 -1 0
    outer loop
      vertex 15 14 0
      vertex 14.645 14 0.395
      vertex 14 14 0
    endloop
  endfacet
  facet normal 0 1 0
    outer loop
      vertex 15 6 1.55
      vertex 14.645 6 0.395
      vertex 14.645 6 1.55
    endloop
  endfacet
  facet normal 0 1 -0
    outer loop
      vertex 15 6 0
      vertex 14.645 6 0.395
      vertex 15 6 1.55
    endloop
  endfacet
  facet normal 0 1 0
    outer loop
      vertex 14 6 0
      vertex 14.645 6 0.395
      vertex 15 6 0
    endloop
  endfacet
  facet normal 0 1 0
    outer loop
      vertex 14.645 6 0.395
      vertex 14 6 0
      vertex 14 6 0.395
    endloop
  endfacet
  facet normal 0 1 -0
    outer loop
      vertex 13.75 13.75 0
      vertex 6.25 13.75 0.395
      vertex 13.75 13.75 0.395
    endloop
  endfacet
  facet normal 0 1 0
    outer loop
      vertex 6.25 13.75 0.395
      vertex 13.75 13.75 0
      vertex 6.25 13.75 0
    endloop
  endfacet
  facet normal 1 0 0
    outer loop
      vertex 6 14.645 0.395
      vertex 6 15 1.55
      vertex 6 14.645 1.55
    endloop
  endfacet
  facet normal 1 0 0
    outer loop
      vertex 6 15 1.55
      vertex 6 14.645 0.395
      vertex 6 15 0
    endloop
  endfacet
  facet normal 1 0 0
    outer loop
      vertex 6 14 0
      vertex 6 14.645 0.395
      vertex 6 14 0.395
    endloop
  endfacet
  facet normal 1 0 0
    outer loop
      vertex 6 14.645 0.395
      vertex 6 14 0
      vertex 6 15 0
    endloop
  endfacet
  facet normal -1 0 0
    outer loop
      vertex 14 15 0
      vertex 14 14.645 0.395
      vertex 14 15 1.55
    endloop
  endfacet
  facet normal -1 0 0
    outer loop
      vertex 14 14 0
      vertex 14 14.645 0.395
      vertex 14 15 0
    endloop
  endfacet
  facet normal -1 -0 0
    outer loop
      vertex 14 14.645 0.395
      vertex 14 14 0
      vertex 14 14 0.395
    endloop
  endfacet
  facet normal -1 -0 0
    outer loop
      vertex 14 15 1.55
      vertex 14 14.645 0.395
      vertex 14 14.645 1.55
    endloop
  endfacet
endsolid OpenSCAD_Model
