solid OpenSCAD_Model
  facet normal 0.5 -0.866026 0
    outer loop
      vertex 0 -5.7735 0
      vertex 5 -2.88675 0.4
      vertex 0 -5.7735 0.4
    endloop
  endfacet
  facet normal 0.5 -0.866026 0
    outer loop
      vertex 5 -2.88675 0.4
      vertex 0 -5.7735 0
      vertex 5 -2.88675 0
    endloop
  endfacet
  facet normal -0.5 0.866026 0
    outer loop
      vertex 0 5.7735 0
      vertex -5 2.88675 0.4
      vertex 0 5.7735 0.4
    endloop
  endfacet
  facet normal -0.5 0.866026 0
    outer loop
      vertex -5 2.88675 0.4
      vertex 0 5.7735 0
      vertex -5 2.88675 0
    endloop
  endfacet
  facet normal -1 0 0
    outer loop
      vertex -5 -2.88675 0
      vertex -5 2.88675 0.4
      vertex -5 2.88675 0
    endloop
  endfacet
  facet normal -1 -0 0
    outer loop
      vertex -5 2.88675 0.4
      vertex -5 -2.88675 0
      vertex -5 -2.88675 0.4
    endloop
  endfacet
  facet normal -0.5 -0.866026 0
    outer loop
      vertex -5 -2.88675 0
      vertex 0 -5.7735 0.4
      vertex -5 -2.88675 0.4
    endloop
  endfacet
  facet normal -0.5 -0.866026 -0
    outer loop
      vertex 0 -5.7735 0.4
      vertex -5 -2.88675 0
      vertex 0 -5.7735 0
    endloop
  endfacet
  facet normal -0 0 1
    outer loop
      vertex -5 20.2073 0.4
      vertex 0 11.547 0.4
      vertex 0 23.094 0.4
    endloop
  endfacet
  facet normal 0 0 1
    outer loop
      vertex 0 11.547 0.4
      vertex -5 20.2073 0.4
      vertex -5 14.4338 0.4
    endloop
  endfacet
  facet normal -0 0 1
    outer loop
      vertex -5 37.5278 0.4
      vertex 0 28.8675 0.4
      vertex 0 40.4145 0.4
    endloop
  endfacet
  facet normal 0 0 1
    outer loop
      vertex 0 28.8675 0.4
      vertex -5 37.5278 0.4
      vertex -5 31.7543 0.4
    endloop
  endfacet
  facet normal -0 0 1
    outer loop
      vertex 35 37.5278 0.4
      vertex 45 31.7543 0.4
      vertex 45 37.5278 0.4
    endloop
  endfacet
  facet normal 0 0 1
    outer loop
      vertex 45 31.7543 0.4
      vertex 35 37.5278 0.4
      vertex 45 20.2073 0.4
    endloop
  endfacet
  facet normal -0 0 1
    outer loop
      vertex 25 37.5278 0.4
      vertex 45 20.2073 0.4
      vertex 35 37.5278 0.4
    endloop
  endfacet
  facet normal 0 0 1
    outer loop
      vertex 45 20.2073 0.4
      vertex 25 37.5278 0.4
      vertex 45 14.4338 0.4
    endloop
  endfacet
  facet normal 0 0 1
    outer loop
      vertex 35 37.5278 0.4
      vertex 45 37.5278 0.4
      vertex 40 40.4145 0.4
    endloop
  endfacet
  facet normal 0 0 1
    outer loop
      vertex 45 14.4338 0.4
      vertex 35 -2.88675 0.4
      vertex 45 2.88675 0.4
    endloop
  endfacet
  facet normal 0 0 1
    outer loop
      vertex 45 2.88675 0.4
      vertex 35 -2.88675 0.4
      vertex 45 -2.88675 0.4
    endloop
  endfacet
  facet normal 0 0 1
    outer loop
      vertex 45 -2.88675 0.4
      vertex 35 -2.88675 0.4
      vertex 40 -5.7735 0.4
    endloop
  endfacet
  facet normal 0 0 1
    outer loop
      vertex 25 37.5278 0.4
      vertex 35 37.5278 0.4
      vertex 30 40.4145 0.4
    endloop
  endfacet
  facet normal 0 0 1
    outer loop
      vertex 25 -2.88675 0.4
      vertex 45 14.4338 0.4
      vertex 25 37.5278 0.4
    endloop
  endfacet
  facet normal 0 0 1
    outer loop
      vertex 45 14.4338 0.4
      vertex 25 -2.88675 0.4
      vertex 35 -2.88675 0.4
    endloop
  endfacet
  facet normal 0 0 1
    outer loop
      vertex 35 -2.88675 0.4
      vertex 25 -2.88675 0.4
      vertex 30 -5.7735 0.4
    endloop
  endfacet
  facet normal 0 0 1
    outer loop
      vertex 15 37.5278 0.4
      vertex 25 37.5278 0.4
      vertex 20 40.4145 0.4
    endloop
  endfacet
  facet normal 0 0 1
    outer loop
      vertex 25 37.5278 0.4
      vertex 15 37.5278 0.4
      vertex 25 -2.88675 0.4
    endloop
  endfacet
  facet normal 0 0 1
    outer loop
      vertex 15 -2.88675 0.4
      vertex 25 -2.88675 0.4
      vertex 15 37.5278 0.4
    endloop
  endfacet
  facet normal 0 0 1
    outer loop
      vertex 25 -2.88675 0.4
      vertex 15 -2.88675 0.4
      vertex 20 -5.7735 0.4
    endloop
  endfacet
  facet normal 0 0 1
    outer loop
      vertex 5 37.5278 0.4
      vertex 15 37.5278 0.4
      vertex 10 40.4145 0.4
    endloop
  endfacet
  facet normal 0 0 1
    outer loop
      vertex 15 37.5278 0.4
      vertex 0 23.094 0.4
      vertex 15 -2.88675 0.4
    endloop
  endfacet
  facet normal 0 0 1
    outer loop
      vertex 0 28.8675 0.4
      vertex 15 37.5278 0.4
      vertex 5 37.5278 0.4
    endloop
  endfacet
  facet normal -0 0 1
    outer loop
      vertex 0 11.547 0.4
      vertex 15 -2.88675 0.4
      vertex 0 23.094 0.4
    endloop
  endfacet
  facet normal 0 0 1
    outer loop
      vertex 0 28.8675 0.4
      vertex 5 37.5278 0.4
      vertex 0 40.4145 0.4
    endloop
  endfacet
  facet normal 0 0 1
    outer loop
      vertex 15 37.5278 0.4
      vertex 0 28.8675 0.4
      vertex 0 23.094 0.4
    endloop
  endfacet
  facet normal -0 0 1
    outer loop
      vertex 0 5.7735 0.4
      vertex 15 -2.88675 0.4
      vertex 0 11.547 0.4
    endloop
  endfacet
  facet normal 0 0 1
    outer loop
      vertex 15 -2.88675 0.4
      vertex 5 -2.88675 0.4
      vertex 10 -5.7735 0.4
    endloop
  endfacet
  facet normal 0 0 1
    outer loop
      vertex 15 -2.88675 0.4
      vertex 0 5.7735 0.4
      vertex 5 -2.88675 0.4
    endloop
  endfacet
  facet normal 0 0 1
    outer loop
      vertex 0 5.7735 0.4
      vertex 0 -5.7735 0.4
      vertex 5 -2.88675 0.4
    endloop
  endfacet
  facet normal -0 0 1
    outer loop
      vertex -5 2.88675 0.4
      vertex 0 -5.7735 0.4
      vertex 0 5.7735 0.4
    endloop
  endfacet
  facet normal 0 0 1
    outer loop
      vertex 0 -5.7735 0.4
      vertex -5 2.88675 0.4
      vertex -5 -2.88675 0.4
    endloop
  endfacet
  facet normal 0 0 1
    outer loop
      vertex 45 31.7543 0.4
      vertex 50 23.094 0.4
      vertex 50 28.8675 0.4
    endloop
  endfacet
  facet normal 0 0 1
    outer loop
      vertex 50 23.094 0.4
      vertex 45 31.7543 0.4
      vertex 45 20.2073 0.4
    endloop
  endfacet
  facet normal 0 0 1
    outer loop
      vertex 45 14.4338 0.4
      vertex 50 5.7735 0.4
      vertex 50 11.547 0.4
    endloop
  endfacet
  facet normal 0 0 1
    outer loop
      vertex 50 5.7735 0.4
      vertex 45 14.4338 0.4
      vertex 45 2.88675 0.4
    endloop
  endfacet
  facet normal 0 0 -1
    outer loop
      vertex -5 14.4338 0
      vertex 0 23.094 0
      vertex 0 11.547 0
    endloop
  endfacet
  facet normal 0 0 -1
    outer loop
      vertex 0 23.094 0
      vertex -5 14.4338 0
      vertex -5 20.2073 0
    endloop
  endfacet
  facet normal 0 0 -1
    outer loop
      vertex -5 -2.88675 0
      vertex 0 5.7735 0
      vertex 0 -5.7735 0
    endloop
  endfacet
  facet normal 0 0 -1
    outer loop
      vertex 0 5.7735 0
      vertex -5 -2.88675 0
      vertex -5 2.88675 0
    endloop
  endfacet
  facet normal 0 0 -1
    outer loop
      vertex 35 -2.88675 0
      vertex 45 2.88675 0
      vertex 45 -2.88675 0
    endloop
  endfacet
  facet normal -0 0 -1
    outer loop
      vertex 45 2.88675 0
      vertex 35 -2.88675 0
      vertex 45 14.4338 0
    endloop
  endfacet
  facet normal 0 0 -1
    outer loop
      vertex 25 -2.88675 0
      vertex 45 14.4338 0
      vertex 35 -2.88675 0
    endloop
  endfacet
  facet normal -0 0 -1
    outer loop
      vertex 45 14.4338 0
      vertex 25 -2.88675 0
      vertex 45 20.2073 0
    endloop
  endfacet
  facet normal 0 0 -1
    outer loop
      vertex 35 -2.88675 0
      vertex 45 -2.88675 0
      vertex 40 -5.7735 0
    endloop
  endfacet
  facet normal 0 0 -1
    outer loop
      vertex 45 20.2073 0
      vertex 35 37.5278 0
      vertex 45 31.7543 0
    endloop
  endfacet
  facet normal 0 0 -1
    outer loop
      vertex 45 31.7543 0
      vertex 35 37.5278 0
      vertex 45 37.5278 0
    endloop
  endfacet
  facet normal 0 0 -1
    outer loop
      vertex 45 37.5278 0
      vertex 35 37.5278 0
      vertex 40 40.4145 0
    endloop
  endfacet
  facet normal 0 0 -1
    outer loop
      vertex 25 -2.88675 0
      vertex 35 -2.88675 0
      vertex 30 -5.7735 0
    endloop
  endfacet
  facet normal 0 0 -1
    outer loop
      vertex 25 37.5278 0
      vertex 45 20.2073 0
      vertex 25 -2.88675 0
    endloop
  endfacet
  facet normal 0 0 -1
    outer loop
      vertex 45 20.2073 0
      vertex 25 37.5278 0
      vertex 35 37.5278 0
    endloop
  endfacet
  facet normal 0 0 -1
    outer loop
      vertex 35 37.5278 0
      vertex 25 37.5278 0
      vertex 30 40.4145 0
    endloop
  endfacet
  facet normal 0 0 -1
    outer loop
      vertex 15 -2.88675 0
      vertex 25 -2.88675 0
      vertex 20 -5.7735 0
    endloop
  endfacet
  facet normal 0 0 -1
    outer loop
      vertex 25 -2.88675 0
      vertex 15 -2.88675 0
      vertex 25 37.5278 0
    endloop
  endfacet
  facet normal 0 0 -1
    outer loop
      vertex 15 37.5278 0
      vertex 25 37.5278 0
      vertex 15 -2.88675 0
    endloop
  endfacet
  facet normal 0 0 -1
    outer loop
      vertex 25 37.5278 0
      vertex 15 37.5278 0
      vertex 20 40.4145 0
    endloop
  endfacet
  facet normal 0 0 -1
    outer loop
      vertex 5 -2.88675 0
      vertex 15 -2.88675 0
      vertex 10 -5.7735 0
    endloop
  endfacet
  facet normal 0 0 -1
    outer loop
      vertex 15 -2.88675 0
      vertex 0 11.547 0
      vertex 15 37.5278 0
    endloop
  endfacet
  facet normal 0 0 -1
    outer loop
      vertex 0 5.7735 0
      vertex 15 -2.88675 0
      vertex 5 -2.88675 0
    endloop
  endfacet
  facet normal 0 0 -1
    outer loop
      vertex 0 23.094 0
      vertex 15 37.5278 0
      vertex 0 11.547 0
    endloop
  endfacet
  facet normal 0 0 -1
    outer loop
      vertex 0 5.7735 0
      vertex 5 -2.88675 0
      vertex 0 -5.7735 0
    endloop
  endfacet
  facet normal 0 0 -1
    outer loop
      vertex 15 -2.88675 0
      vertex 0 5.7735 0
      vertex 0 11.547 0
    endloop
  endfacet
  facet normal 0 0 -1
    outer loop
      vertex 0 28.8675 0
      vertex 15 37.5278 0
      vertex 0 23.094 0
    endloop
  endfacet
  facet normal 0 0 -1
    outer loop
      vertex 15 37.5278 0
      vertex 5 37.5278 0
      vertex 10 40.4145 0
    endloop
  endfacet
  facet normal -0 0 -1
    outer loop
      vertex 15 37.5278 0
      vertex 0 28.8675 0
      vertex 5 37.5278 0
    endloop
  endfacet
  facet normal 0 0 -1
    outer loop
      vertex 0 28.8675 0
      vertex 0 40.4145 0
      vertex 5 37.5278 0
    endloop
  endfacet
  facet normal 0 0 -1
    outer loop
      vertex -5 31.7543 0
      vertex 0 40.4145 0
      vertex 0 28.8675 0
    endloop
  endfacet
  facet normal 0 0 -1
    outer loop
      vertex 0 40.4145 0
      vertex -5 31.7543 0
      vertex -5 37.5278 0
    endloop
  endfacet
  facet normal 0 0 -1
    outer loop
      vertex 45 2.88675 0
      vertex 50 11.547 0
      vertex 50 5.7735 0
    endloop
  endfacet
  facet normal -0 0 -1
    outer loop
      vertex 50 11.547 0
      vertex 45 2.88675 0
      vertex 45 14.4338 0
    endloop
  endfacet
  facet normal 0 0 -1
    outer loop
      vertex 45 20.2073 0
      vertex 50 28.8675 0
      vertex 50 23.094 0
    endloop
  endfacet
  facet normal -0 0 -1
    outer loop
      vertex 50 28.8675 0
      vertex 45 20.2073 0
      vertex 45 31.7543 0
    endloop
  endfacet
  facet normal 0.5 -0.866026 0
    outer loop
      vertex 10 -5.7735 0
      vertex 15 -2.88675 0.4
      vertex 10 -5.7735 0.4
    endloop
  endfacet
  facet normal 0.5 -0.866026 0
    outer loop
      vertex 15 -2.88675 0.4
      vertex 10 -5.7735 0
      vertex 15 -2.88675 0
    endloop
  endfacet
  facet normal -0.5 -0.866026 0
    outer loop
      vertex 5 -2.88675 0
      vertex 10 -5.7735 0.4
      vertex 5 -2.88675 0.4
    endloop
  endfacet
  facet normal -0.5 -0.866026 -0
    outer loop
      vertex 10 -5.7735 0.4
      vertex 5 -2.88675 0
      vertex 10 -5.7735 0
    endloop
  endfacet
  facet normal 0.5 -0.866026 0
    outer loop
      vertex 20 -5.7735 0
      vertex 25 -2.88675 0.4
      vertex 20 -5.7735 0.4
    endloop
  endfacet
  facet normal 0.5 -0.866026 0
    outer loop
      vertex 25 -2.88675 0.4
      vertex 20 -5.7735 0
      vertex 25 -2.88675 0
    endloop
  endfacet
  facet normal -0.5 -0.866026 0
    outer loop
      vertex 15 -2.88675 0
      vertex 20 -5.7735 0.4
      vertex 15 -2.88675 0.4
    endloop
  endfacet
  facet normal -0.5 -0.866026 -0
    outer loop
      vertex 20 -5.7735 0.4
      vertex 15 -2.88675 0
      vertex 20 -5.7735 0
    endloop
  endfacet
  facet normal 0.5 -0.866026 0
    outer loop
      vertex 30 -5.7735 0
      vertex 35 -2.88675 0.4
      vertex 30 -5.7735 0.4
    endloop
  endfacet
  facet normal 0.5 -0.866026 0
    outer loop
      vertex 35 -2.88675 0.4
      vertex 30 -5.7735 0
      vertex 35 -2.88675 0
    endloop
  endfacet
  facet normal -0.5 -0.866026 0
    outer loop
      vertex 25 -2.88675 0
      vertex 30 -5.7735 0.4
      vertex 25 -2.88675 0.4
    endloop
  endfacet
  facet normal -0.5 -0.866026 -0
    outer loop
      vertex 30 -5.7735 0.4
      vertex 25 -2.88675 0
      vertex 30 -5.7735 0
    endloop
  endfacet
  facet normal 0.5 -0.866026 0
    outer loop
      vertex 40 -5.7735 0
      vertex 45 -2.88675 0.4
      vertex 40 -5.7735 0.4
    endloop
  endfacet
  facet normal 0.5 -0.866026 0
    outer loop
      vertex 45 -2.88675 0.4
      vertex 40 -5.7735 0
      vertex 45 -2.88675 0
    endloop
  endfacet
  facet normal 1 -0 0
    outer loop
      vertex 45 -2.88675 0.4
      vertex 45 2.88675 0
      vertex 45 2.88675 0.4
    endloop
  endfacet
  facet normal 1 0 0
    outer loop
      vertex 45 2.88675 0
      vertex 45 -2.88675 0.4
      vertex 45 -2.88675 0
    endloop
  endfacet
  facet normal -0.5 -0.866026 0
    outer loop
      vertex 35 -2.88675 0
      vertex 40 -5.7735 0.4
      vertex 35 -2.88675 0.4
    endloop
  endfacet
  facet normal -0.5 -0.866026 -0
    outer loop
      vertex 40 -5.7735 0.4
      vertex 35 -2.88675 0
      vertex 40 -5.7735 0
    endloop
  endfacet
  facet normal -1 0 0
    outer loop
      vertex 0 5.7735 0
      vertex 0 11.547 0.4
      vertex 0 11.547 0
    endloop
  endfacet
  facet normal -1 -0 0
    outer loop
      vertex 0 11.547 0.4
      vertex 0 5.7735 0
      vertex 0 5.7735 0.4
    endloop
  endfacet
  facet normal 0.5 -0.866026 0
    outer loop
      vertex 45 2.88675 0
      vertex 50 5.7735 0.4
      vertex 45 2.88675 0.4
    endloop
  endfacet
  facet normal 0.5 -0.866026 0
    outer loop
      vertex 50 5.7735 0.4
      vertex 45 2.88675 0
      vertex 50 5.7735 0
    endloop
  endfacet
  facet normal 1 -0 0
    outer loop
      vertex 50 5.7735 0.4
      vertex 50 11.547 0
      vertex 50 11.547 0.4
    endloop
  endfacet
  facet normal 1 0 0
    outer loop
      vertex 50 11.547 0
      vertex 50 5.7735 0.4
      vertex 50 5.7735 0
    endloop
  endfacet
  facet normal 0.500006 0.866022 -0
    outer loop
      vertex 50 11.547 0
      vertex 45 14.4338 0.4
      vertex 50 11.547 0.4
    endloop
  endfacet
  facet normal 0.500006 0.866022 0
    outer loop
      vertex 45 14.4338 0.4
      vertex 50 11.547 0
      vertex 45 14.4338 0
    endloop
  endfacet
  facet normal -0.499993 0.866029 0
    outer loop
      vertex 0 23.094 0
      vertex -5 20.2073 0.4
      vertex 0 23.094 0.4
    endloop
  endfacet
  facet normal -0.499993 0.866029 0
    outer loop
      vertex -5 20.2073 0.4
      vertex 0 23.094 0
      vertex -5 20.2073 0
    endloop
  endfacet
  facet normal -1 0 0
    outer loop
      vertex -5 14.4338 0
      vertex -5 20.2073 0.4
      vertex -5 20.2073 0
    endloop
  endfacet
  facet normal -1 -0 0
    outer loop
      vertex -5 20.2073 0.4
      vertex -5 14.4338 0
      vertex -5 14.4338 0.4
    endloop
  endfacet
  facet normal -0.500006 -0.866022 0
    outer loop
      vertex -5 14.4338 0
      vertex 0 11.547 0.4
      vertex -5 14.4338 0.4
    endloop
  endfacet
  facet normal -0.500006 -0.866022 -0
    outer loop
      vertex 0 11.547 0.4
      vertex -5 14.4338 0
      vertex 0 11.547 0
    endloop
  endfacet
  facet normal 1 -0 0
    outer loop
      vertex 45 14.4338 0.4
      vertex 45 20.2073 0
      vertex 45 20.2073 0.4
    endloop
  endfacet
  facet normal 1 0 0
    outer loop
      vertex 45 20.2073 0
      vertex 45 14.4338 0.4
      vertex 45 14.4338 0
    endloop
  endfacet
  facet normal -1 0 0
    outer loop
      vertex 0 23.094 0
      vertex 0 28.8675 0.4
      vertex 0 28.8675 0
    endloop
  endfacet
  facet normal -1 -0 0
    outer loop
      vertex 0 28.8675 0.4
      vertex 0 23.094 0
      vertex 0 23.094 0.4
    endloop
  endfacet
  facet normal 0.499993 -0.866029 0
    outer loop
      vertex 45 20.2073 0
      vertex 50 23.094 0.4
      vertex 45 20.2073 0.4
    endloop
  endfacet
  facet normal 0.499993 -0.866029 0
    outer loop
      vertex 50 23.094 0.4
      vertex 45 20.2073 0
      vertex 50 23.094 0
    endloop
  endfacet
  facet normal 1 -0 0
    outer loop
      vertex 50 23.094 0.4
      vertex 50 28.8675 0
      vertex 50 28.8675 0.4
    endloop
  endfacet
  facet normal 1 0 0
    outer loop
      vertex 50 28.8675 0
      vertex 50 23.094 0.4
      vertex 50 23.094 0
    endloop
  endfacet
  facet normal 0.500006 0.866022 -0
    outer loop
      vertex 50 28.8675 0
      vertex 45 31.7543 0.4
      vertex 50 28.8675 0.4
    endloop
  endfacet
  facet normal 0.500006 0.866022 0
    outer loop
      vertex 45 31.7543 0.4
      vertex 50 28.8675 0
      vertex 45 31.7543 0
    endloop
  endfacet
  facet normal -0.499993 0.866029 0
    outer loop
      vertex 0 40.4145 0
      vertex -5 37.5278 0.4
      vertex 0 40.4145 0.4
    endloop
  endfacet
  facet normal -0.499993 0.866029 0
    outer loop
      vertex -5 37.5278 0.4
      vertex 0 40.4145 0
      vertex -5 37.5278 0
    endloop
  endfacet
  facet normal 0.499993 0.866029 -0
    outer loop
      vertex 5 37.5278 0
      vertex 0 40.4145 0.4
      vertex 5 37.5278 0.4
    endloop
  endfacet
  facet normal 0.499993 0.866029 0
    outer loop
      vertex 0 40.4145 0.4
      vertex 5 37.5278 0
      vertex 0 40.4145 0
    endloop
  endfacet
  facet normal -1 0 0
    outer loop
      vertex -5 31.7543 0
      vertex -5 37.5278 0.4
      vertex -5 37.5278 0
    endloop
  endfacet
  facet normal -1 -0 0
    outer loop
      vertex -5 37.5278 0.4
      vertex -5 31.7543 0
      vertex -5 31.7543 0.4
    endloop
  endfacet
  facet normal -0.500006 -0.866022 0
    outer loop
      vertex -5 31.7543 0
      vertex 0 28.8675 0.4
      vertex -5 31.7543 0.4
    endloop
  endfacet
  facet normal -0.500006 -0.866022 -0
    outer loop
      vertex 0 28.8675 0.4
      vertex -5 31.7543 0
      vertex 0 28.8675 0
    endloop
  endfacet
  facet normal -0.499993 0.866029 0
    outer loop
      vertex 10 40.4145 0
      vertex 5 37.5278 0.4
      vertex 10 40.4145 0.4
    endloop
  endfacet
  facet normal -0.499993 0.866029 0
    outer loop
      vertex 5 37.5278 0.4
      vertex 10 40.4145 0
      vertex 5 37.5278 0
    endloop
  endfacet
  facet normal 0.499993 0.866029 -0
    outer loop
      vertex 15 37.5278 0
      vertex 10 40.4145 0.4
      vertex 15 37.5278 0.4
    endloop
  endfacet
  facet normal 0.499993 0.866029 0
    outer loop
      vertex 10 40.4145 0.4
      vertex 15 37.5278 0
      vertex 10 40.4145 0
    endloop
  endfacet
  facet normal -0.499993 0.866029 0
    outer loop
      vertex 20 40.4145 0
      vertex 15 37.5278 0.4
      vertex 20 40.4145 0.4
    endloop
  endfacet
  facet normal -0.499993 0.866029 0
    outer loop
      vertex 15 37.5278 0.4
      vertex 20 40.4145 0
      vertex 15 37.5278 0
    endloop
  endfacet
  facet normal 0.499993 0.866029 -0
    outer loop
      vertex 25 37.5278 0
      vertex 20 40.4145 0.4
      vertex 25 37.5278 0.4
    endloop
  endfacet
  facet normal 0.499993 0.866029 0
    outer loop
      vertex 20 40.4145 0.4
      vertex 25 37.5278 0
      vertex 20 40.4145 0
    endloop
  endfacet
  facet normal -0.499993 0.866029 0
    outer loop
      vertex 30 40.4145 0
      vertex 25 37.5278 0.4
      vertex 30 40.4145 0.4
    endloop
  endfacet
  facet normal -0.499993 0.866029 0
    outer loop
      vertex 25 37.5278 0.4
      vertex 30 40.4145 0
      vertex 25 37.5278 0
    endloop
  endfacet
  facet normal 0.499993 0.866029 -0
    outer loop
      vertex 35 37.5278 0
      vertex 30 40.4145 0.4
      vertex 35 37.5278 0.4
    endloop
  endfacet
  facet normal 0.499993 0.866029 0
    outer loop
      vertex 30 40.4145 0.4
      vertex 35 37.5278 0
      vertex 30 40.4145 0
    endloop
  endfacet
  facet normal -0.499993 0.866029 0
    outer loop
      vertex 40 40.4145 0
      vertex 35 37.5278 0.4
      vertex 40 40.4145 0.4
    endloop
  endfacet
  facet normal -0.499993 0.866029 0
    outer loop
      vertex 35 37.5278 0.4
      vertex 40 40.4145 0
      vertex 35 37.5278 0
    endloop
  endfacet
  facet normal 0.499993 0.866029 -0
    outer loop
      vertex 45 37.5278 0
      vertex 40 40.4145 0.4
      vertex 45 37.5278 0.4
    endloop
  endfacet
  facet normal 0.499993 0.866029 0
    outer loop
      vertex 40 40.4145 0.4
      vertex 45 37.5278 0
      vertex 40 40.4145 0
    endloop
  endfacet
  facet normal 1 -0 0
    outer loop
      vertex 45 31.7543 0.4
      vertex 45 37.5278 0
      vertex 45 37.5278 0.4
    endloop
  endfacet
  facet normal 1 0 0
    outer loop
      vertex 45 37.5278 0
      vertex 45 31.7543 0.4
      vertex 45 31.7543 0
    endloop
  endfacet
endsolid OpenSCAD_Model
