solid OpenSCAD_Model
  facet normal 1 -0 0
    outer loop
      vertex 314.8 -4.8 1
      vertex 314.8 74.8 0
      vertex 314.8 74.8 1
    endloop
  endfacet
  facet normal 1 0 0
    outer loop
      vertex 314.8 74.8 0
      vertex 314.8 -4.8 1
      vertex 314.8 -4.8 0
    endloop
  endfacet
  facet normal 0 0 1
    outer loop
      vertex 314.8 74.8 1
      vertex 160 -4 1
      vertex 314.8 -4.8 1
    endloop
  endfacet
  facet normal 0 0 1
    outer loop
      vertex 314.8 74.8 1
      vertex 150 -4 1
      vertex 160 -4 1
    endloop
  endfacet
  facet normal -0 0 1
    outer loop
      vertex -4.8 74.8 1
      vertex 150 -4 1
      vertex 314.8 74.8 1
    endloop
  endfacet
  facet normal 0 0 1
    outer loop
      vertex -4.8 -4.8 1
      vertex 150 -4 1
      vertex -4.8 74.8 1
    endloop
  endfacet
  facet normal 0 0 1
    outer loop
      vertex 150 -4 1
      vertex -4.8 -4.8 1
      vertex 150 -4.8 1
    endloop
  endfacet
  facet normal 0 0 1
    outer loop
      vertex 314.8 -4.8 1
      vertex 160 -4 1
      vertex 160 -4.8 1
    endloop
  endfacet
  facet normal 0 0 -1
    outer loop
      vertex 150 -4.8 0
      vertex -4.8 -4.8 0
      vertex 150 -4 0
    endloop
  endfacet
  facet normal 0 0 -1
    outer loop
      vertex 160 -4 0
      vertex 314.8 -4.8 0
      vertex 160 -4.8 0
    endloop
  endfacet
  facet normal 0 0 -1
    outer loop
      vertex 314.8 -4.8 0
      vertex 160 -4 0
      vertex 314.8 74.8 0
    endloop
  endfacet
  facet normal 0 0 -1
    outer loop
      vertex 150 -4 0
      vertex 314.8 74.8 0
      vertex 160 -4 0
    endloop
  endfacet
  facet normal 0 0 -1
    outer loop
      vertex -4.8 74.8 0
      vertex 150 -4 0
      vertex -4.8 -4.8 0
    endloop
  endfacet
  facet normal 0 0 -1
    outer loop
      vertex 150 -4 0
      vertex -4.8 74.8 0
      vertex 314.8 74.8 0
    endloop
  endfacet
  facet normal -1 0 0
    outer loop
      vertex -4.8 -4.8 0
      vertex -4.8 74.8 1
      vertex -4.8 74.8 0
    endloop
  endfacet
  facet normal -1 -0 0
    outer loop
      vertex -4.8 74.8 1
      vertex -4.8 -4.8 0
      vertex -4.8 -4.8 1
    endloop
  endfacet
  facet normal 0 1 -0
    outer loop
      vertex 314.8 74.8 0
      vertex -4.8 74.8 1
      vertex 314.8 74.8 1
    endloop
  endfacet
  facet normal 0 1 0
    outer loop
      vertex -4.8 74.8 1
      vertex 314.8 74.8 0
      vertex -4.8 74.8 0
    endloop
  endfacet
  facet normal 0 -1 0
    outer loop
      vertex -4.8 -4.8 0
      vertex 150 -4.8 1
      vertex -4.8 -4.8 1
    endloop
  endfacet
  facet normal 0 -1 -0
    outer loop
      vertex 150 -4.8 1
      vertex -4.8 -4.8 0
      vertex 150 -4.8 0
    endloop
  endfacet
  facet normal 0 -1 0
    outer loop
      vertex 160 -4.8 0
      vertex 314.8 -4.8 1
      vertex 160 -4.8 1
    endloop
  endfacet
  facet normal 0 -1 -0
    outer loop
      vertex 314.8 -4.8 1
      vertex 160 -4.8 0
      vertex 314.8 -4.8 0
    endloop
  endfacet
  facet normal -1 0 0
    outer loop
      vertex 160 -4.8 0
      vertex 160 -4 1
      vertex 160 -4 0
    endloop
  endfacet
  facet normal -1 -0 0
    outer loop
      vertex 160 -4 1
      vertex 160 -4.8 0
      vertex 160 -4.8 1
    endloop
  endfacet
  facet normal 1 -0 0
    outer loop
      vertex 150 -4.8 1
      vertex 150 -4 0
      vertex 150 -4 1
    endloop
  endfacet
  facet normal 1 0 0
    outer loop
      vertex 150 -4 0
      vertex 150 -4.8 1
      vertex 150 -4.8 0
    endloop
  endfacet
  facet normal 0 -1 0
    outer loop
      vertex 150 -4 0
      vertex 160 -4 1
      vertex 150 -4 1
    endloop
  endfacet
  facet normal 0 -1 -0
    outer loop
      vertex 160 -4 1
      vertex 150 -4 0
      vertex 160 -4 0
    endloop
  endfacet
endsolid OpenSCAD_Model
