solid OpenSCAD_Model
  facet normal -0 0 1
    outer loop
      vertex -5 75 10
      vertex 315 -5 10
      vertex 315 75 10
    endloop
  endfacet
  facet normal 0 0 1
    outer loop
      vertex 315 -5 10
      vertex -5 75 10
      vertex -5 -5 10
    endloop
  endfacet
  facet normal 0 0 -1
    outer loop
      vertex -5 -5 9.6
      vertex 315 75 9.6
      vertex 315 -5 9.6
    endloop
  endfacet
  facet normal -0 0 -1
    outer loop
      vertex 315 75 9.6
      vertex -5 -5 9.6
      vertex -5 75 9.6
    endloop
  endfacet
  facet normal -1 0 0
    outer loop
      vertex -5 -5 9.6
      vertex -5 75 10
      vertex -5 75 9.6
    endloop
  endfacet
  facet normal -1 -0 0
    outer loop
      vertex -5 75 10
      vertex -5 -5 9.6
      vertex -5 -5 10
    endloop
  endfacet
  facet normal 0 -1 0
    outer loop
      vertex -5 -5 9.6
      vertex 315 -5 10
      vertex -5 -5 10
    endloop
  endfacet
  facet normal 0 -1 -0
    outer loop
      vertex 315 -5 10
      vertex -5 -5 9.6
      vertex 315 -5 9.6
    endloop
  endfacet
  facet normal 1 -0 0
    outer loop
      vertex 315 -5 10
      vertex 315 75 9.6
      vertex 315 75 10
    endloop
  endfacet
  facet normal 1 0 0
    outer loop
      vertex 315 75 9.6
      vertex 315 -5 10
      vertex 315 -5 9.6
    endloop
  endfacet
  facet normal 0 1 -0
    outer loop
      vertex 315 75 9.6
      vertex -5 75 10
      vertex 315 75 10
    endloop
  endfacet
  facet normal 0 1 0
    outer loop
      vertex -5 75 10
      vertex 315 75 9.6
      vertex -5 75 9.6
    endloop
  endfacet
endsolid OpenSCAD_Model
